<?xml version="1.0" standalone="no"?>
<!DOCTYPE svg PUBLIC "-//W3C//DTD SVG 1.1//EN" "http://www.w3.org/Graphics/SVG/1.1/DTD/svg11.dtd" >
<svg>
<metadata>
Created by FontForge 20090914 at Sat Nov 27 14:27:50 2021
 By www-data
Generated by Fontographer 3.5. Converted to Unicode by fonter.am 2021. 
</metadata>
<defs>
<font id="ArmoldU" horiz-adv-x="1000" >
  <font-face 
    font-family="ArmoldU"
    font-weight="400"
    font-stretch="normal"
    units-per-em="1000"
    panose-1="0 0 0 0 0 0 0 0 0 0"
    ascent="800"
    descent="-200"
    bbox="-20.001 -314.999 750 800"
    underline-thickness="20"
    underline-position="-123"
    unicode-range="U+0009-U+2026"
  />
<missing-glyph horiz-adv-x="800" 
d="M50 0v800h700v-800h-700zM700 50v700h-600v-700h600z" />
    <glyph glyph-name=".notdef" horiz-adv-x="800" 
d="M50 0v800h700v-800h-700zM700 50v700h-600v-700h600z" />
    <glyph glyph-name="nonmarkingreturn" unicode="&#x9;" 
 />
    <glyph glyph-name="nonmarkingreturn" unicode="&#xd;" 
 />
    <glyph glyph-name="space" unicode=" " horiz-adv-x="368" 
 />
    <glyph glyph-name="exclam" unicode="!" 
 />
    <glyph glyph-name="quotedbl" unicode="&#x22;" 
 />
    <glyph glyph-name="comma" unicode="," horiz-adv-x="347" 
d="M247 -26c-11.333 -34.667 -30.666 -64.001 -57.999 -88.001s-54 -36 -80 -36c9.33301 3.33301 20.333 10.333 33 21c12 8 21 20.667 27 38c3.33301 10.667 5.5 18.167 6.5 22.5s1.5 8.83301 1.5 13.5c0 12.667 -8.33301 27.334 -25 44.001s-25 30 -25 40
c2.66699 20 13.167 36.5 31.5 49.5s35.833 19.5 52.5 19.5c15.333 0 27.166 -4.16699 35.499 -12.5s12.5 -22.5 12.5 -42.5c0 -16.667 -4 -39.667 -12 -69z" />
    <glyph glyph-name="period" unicode="." horiz-adv-x="360" 
d="M267 58c0 -11.333 -11 -25.833 -33 -43.5s-38.667 -27.167 -50 -28.5c-8 0 -19.5 9.16699 -34.5 27.5s-22.5 33.166 -22.5 44.499c0 10.667 10.833 24.834 32.5 42.501s38.167 26.5 49.5 26.5s23.833 -9 37.5 -27s20.5 -32 20.5 -42z" />
    <glyph glyph-name="slash" unicode="/" horiz-adv-x="545" 
 />
    <glyph glyph-name="zero" unicode="0" horiz-adv-x="352" 
d="M332 249c0 -38 -6.16895 -76.167 -18.502 -114.5s-24.166 -65.833 -35.499 -82.5s-26.833 -31.834 -46.5 -45.501s-42.167 -20.5 -67.5 -20.5v14c23.333 0 39.333 18.333 48 55l23 102l13 91l3 80c0 26.667 -1.5 46.5 -4.5 59.5s-8.16699 19.5 -15.5 19.5v13
c34 0 59.667 -17 77 -51c8.66699 -19.333 14.834 -38.166 18.501 -56.499s5.5 -39.5 5.5 -63.5zM203.998 407c-19.333 0 -34.6699 -15.5 -46.0029 -46.5s-20.333 -64.167 -27 -99.5l-7 -49.5c-2.66699 -18.333 -4 -33.166 -4 -44.499l-5 -78c0 -26.667 2 -48 6 -64
c2.66699 -16.667 8.33398 -25 17.001 -25v-14c-34.667 0 -60.667 16.833 -78 50.5s-26 74.167 -26 121.5c0 39.333 5.33301 76 16 110s21.834 60.167 33.501 78.5s28.834 35.166 51.501 50.499c20 15.333 43 23 69 23v-13z" />
    <glyph glyph-name="one" unicode="1" horiz-adv-x="184" 
d="M184 399l-60 -359v-4l3 -16l6 -20h-104l18 42l54 326l1 7c0 8 -3.33301 15 -10 21v18h83c6 0 9 -3.66699 9 -11v-4z" />
    <glyph glyph-name="two" unicode="2" horiz-adv-x="381" 
d="M227 414c-20.667 0 -37.668 -17.332 -51.001 -51.999s-20 -67.334 -20 -98.001h-85c10.667 68 29.834 112.167 57.501 132.5s60.5 30.5 98.5 30.5v-13zM363.999 311.001c0 -27.333 -8.16895 -51.5 -24.502 -72.5s-39.166 -40.5 -68.499 -58.5
c-14 -8 -28.333 -15.333 -43 -22s-29.334 -12.334 -44.001 -17.001l-84 -24v13c8.66699 0 28.334 8.33301 59.001 25c18 10 31.5 18 40.5 24s17.333 12.833 25 20.5s14.334 15.834 20.001 24.501s11.5 19 17.5 31c10 23.333 15 56 15 98c0 9.33301 -0.666992 17.833 -2 25.5
s-3 14.5 -5 20.5c-6 10 -12.333 15 -19 15v13c30.667 0 57.167 -11.5 79.5 -34.5s33.5 -50.167 33.5 -81.5zM320.997 125.001c-2.66699 -14 -4.83203 -25.833 -6.49902 -35.5s-5.16699 -25.5 -10.5 -47.5c-7.33301 -28 -16.333 -42 -27 -42h-230l20 109h221
c9.33301 0 16.666 2 21.999 6z" />
    <glyph glyph-name="three" unicode="3" horiz-adv-x="350" 
d="M232 407c-16.667 0 -30.333 -11.333 -41 -34c-6 -12.667 -10.833 -25.667 -14.5 -39s-5.5 -27 -5.5 -41h-86c10.667 52.667 28.667 87 54 103s56.333 24 93 24v-13zM335.001 308c-4 -20.667 -13.668 -38.6641 -29.001 -53.9971
c-2.66699 -2.66699 -8.66699 -7.83398 -18 -15.501s-18.666 -14.834 -27.999 -21.501c4 -3.33301 9.5 -8.83301 16.5 -16.5s12.5 -14.167 16.5 -19.5c11.333 -14 17 -35 17 -63v-10v-6c-4 -36.667 -18.667 -65.334 -44 -86.001c-27.333 -20 -60.666 -30 -99.999 -30v14
c18 0 34 15.667 48 47s21 63.666 21 96.999v11v9c0 16 -2 27.667 -6 35s-9.33301 11 -16 11v14c13.333 0 24.666 10 33.999 30s15.333 39.333 18 58l4 33l1 19c0 13.333 -1.16699 23.833 -3.5 31.5s-6.5 11.5 -12.5 11.5v13c28.667 0 49.667 -8.66699 63 -26
c13.333 -19.333 20 -40.666 20 -63.999zM146 -13.9971c-31.333 0 -56.5 6.50098 -75.5 19.501s-28.5 41.5 -28.5 85.5l1 31l4 28h85l-8 -50c-1.33301 -6.66699 -2.33301 -14.334 -3 -23.001s-1 -16.667 -1 -24c0 -14.667 1.66699 -27.667 5 -39c4 -9.33301 11 -14 21 -14
v-14z" />
    <glyph glyph-name="four" unicode="4" horiz-adv-x="336" 
d="M310 414l-58.999 -78c-13.333 -17.333 -32.333 -40.333 -57 -69l-45 -52c-20.667 -22.667 -41.834 -44.167 -63.501 -64.5s-43.5 -39.5 -65.5 -57.5v11l22 35l43 76c14 26 30.167 65.667 48.5 119s34.833 80 49.5 80h127zM303.001 93l-33.002 -0.000976562
c-12.667 0 -20.167 -3.5 -22.5 -10.5s-3.66602 -14.667 -3.99902 -23s-0.5 -14.833 -0.5 -19.5l3 -16l3 -17l-1 -7h-101c0 6.66699 4.33301 17.334 13 32.001c7.33301 16 11 29.667 11 41c0 9.33301 -5 15.333 -15 18l-96 2v14h96c16 0 26 13.667 30 41s12 44.833 24 52.5
s23.333 16.167 34 25.5l31 27v-18c0 -8.66699 -3 -28 -9 -58l-11 -53c0 -7.33301 2.83301 -12 8.5 -14s18.834 -3 39.501 -3v-14z" />
    <glyph glyph-name="five" unicode="5" horiz-adv-x="357" 
d="M348 430c-1.33301 -10 -2.66797 -18.667 -4.00098 -26s-5.33301 -27 -12 -59c-7.33301 -28 -16.666 -42 -27.999 -42h-180l-19 -76h-18l40 187h188c10 0 17.333 1.66699 22 5zM320.998 116c-6 -44 -25.001 -76.667 -57.001 -98s-63.333 -32 -94 -32v14
c16.667 0 32.334 15.667 47.001 47s22 73 22 125c0 24.667 -4.66699 43.667 -14 57c-11.333 13.333 -25.666 20 -42.999 20c-13.333 0 -24.333 -1.66699 -33 -5l-18 -13l-6 7c4 4 8.83301 8.16699 14.5 12.5s11.5 8.5 17.5 12.5c12 8 29 12 51 12
c31.333 0 58.666 -8.33301 81.999 -25c22 -17.333 33 -49 33 -95v-18zM145.997 -14c-26 0 -49.833 7.16797 -71.5 21.501s-32.5 44.833 -32.5 91.5c0 7.33301 0.333008 15.5 1 24.5s2 17.833 4 26.5h85l-8 -50c-1.33301 -6.66699 -2.33301 -14.334 -3 -23.001
s-1 -16.667 -1 -24c0 -14.667 1.66699 -27.667 5 -39c4 -9.33301 11 -14 21 -14v-14z" />
    <glyph glyph-name="six" unicode="6" horiz-adv-x="355" 
d="M322 267l-85 0.000976562l8 44l3 41c0 16.667 -2 30 -6 40c-5.33301 10 -13 15 -23 15v13c32 0 57.833 -7.83301 77.5 -23.5s29.5 -44.834 29.5 -87.501v-23c-2 -8.66699 -3.33301 -15 -4 -19zM199 407.001c-22 0 -37.998 -18.332 -47.998 -54.999l-22 -102l-12 -90
c-3.33301 -32 -5 -59 -5 -81c0 -24 1.66699 -43.167 5 -57.5s8.66602 -21.5 15.999 -21.5v-14c-34.667 0 -59.834 17.167 -75.501 51.5s-23.5 74.5 -23.5 120.5c0 18 1.33301 36.5 4 55.5s7 37.833 13 56.5c12.667 37.333 24.167 64.166 34.5 80.499s25.833 32 46.5 47
s43 22.5 67 22.5v-13zM292.002 87.002c-5.33301 -33.333 -21.667 -58.499 -49 -75.499s-54 -25.5 -80 -25.5v14c14 0 27.667 12.167 41 36.5s20 55.166 20 92.499c0 19.333 -3.66699 34.333 -11 45s-18.333 16 -33 16l-20 -2l-11 -5l-5 5l22 14c7.33301 4.66699 19 7 35 7
c26 0 48.167 -6.66699 66.5 -20s27.5 -37.333 27.5 -72l-1 -15z" />
    <glyph glyph-name="seven" unicode="7" horiz-adv-x="307" 
d="M308 407l-21 -109h-220c-10 0 -17.667 -2 -23 -6l-10 -11l5 35c1.33301 9.33301 5.33301 26.833 12 52.5s15.667 38.5 27 38.5h230zM266 271l-28.998 -60c-8.66699 -16 -16.834 -32.833 -24.501 -50.5s-13.5 -31.834 -17.5 -42.501l-26 -77
c-9.33301 -27.333 -22.333 -41 -39 -41h-96l40 66c15.333 25.333 40.666 59.333 75.999 102s74 80.334 116 113.001v-10z" />
    <glyph glyph-name="eight" unicode="8" horiz-adv-x="336" 
d="M315 308c-2.66699 -21.333 -11.668 -39.6631 -27.001 -54.9961c-12 -11.333 -21 -19.333 -27 -24c-3.33301 -2.66699 -9 -6.66699 -17 -12c11.333 -10 23 -23.667 35 -41s18 -42 18 -74c0 -37.333 -13.333 -66 -40 -86s-60 -30 -100 -30v14c17.333 0 32.333 15.667 45 47
s19 63.666 19 96.999c0 25.333 -2.5 42.666 -7.5 51.999s-10.5 14 -16.5 14v14c12.667 0 23.167 10 31.5 30s13.5 39.333 15.5 58l4 33v10c0 7.33301 -0.5 14.666 -1.5 21.999s-1.83301 12.666 -2.5 15.999c-3.33301 9.33301 -8 14 -14 14v13
c30.667 0 52.334 -9.66699 65.001 -29c14 -19.333 21 -41 21 -65v-9zM212.999 407.003c-8 0 -16.3359 -8.33496 -25.0029 -25.002c-4.66699 -7.33301 -9 -16.166 -13 -26.499s-7 -20.833 -9 -31.5c-6 -22 -9 -42.333 -9 -61c0 -26 6 -39 18 -39v-14
c-11.333 0 -21.166 -6 -29.499 -18s-16.166 -32.333 -23.499 -61s-11 -56 -11 -82c0 -16 2 -28 6 -36c2.66699 -8.66699 8.33398 -13 17.001 -13v-14c-31.333 0 -56.5 7.16699 -75.5 21.5s-28.5 35.833 -28.5 64.5v10l7 37c4 21.333 15.667 40.5 35 57.5s38 30.5 56 40.5
c-8 6.66699 -16.5 16.834 -25.5 30.501s-13.5 29.5 -13.5 47.5l4 30c2 14 14 33.333 36 58s50 37 84 37v-13z" />
    <glyph glyph-name="nine" unicode="9" horiz-adv-x="348" 
d="M222 219c-7.33301 -6 -15.166 -11.167 -23.499 -15.5s-19.5 -6.5 -33.5 -6.5c-24 0 -45.5 6.66699 -64.5 20s-28.5 37 -28.5 71l6 47c4 23.333 19.667 43.333 47 60s54.666 25 81.999 25v-13c-14.667 0 -28.834 -11.667 -42.501 -35s-20.5 -55 -20.5 -95
c0 -20 3.33301 -35 10 -45s17.334 -15 32.001 -15c10 0 16.667 0.666992 20 2l11 5zM333 249c0 -36.667 -6.33301 -73.6689 -19 -111.002s-24.667 -64.333 -36 -81c-6 -8.66699 -13 -17.167 -21 -25.5s-17.333 -16.166 -28 -23.499c-20.667 -14.667 -42.667 -22 -66 -22v14
c22.667 0 38.834 18.167 48.501 54.5s17.5 69.5 23.5 99.5l16 99c4 34 6 62.667 6 86c0 20.667 -1.66699 37.167 -5 49.5s-8.33301 18.5 -15 18.5v13c37.333 0 62.666 -16.167 75.999 -48.5s20 -73.166 20 -122.499zM143 -14.002c-29.333 0 -53.667 6.33301 -73 19
s-29 38.667 -29 78c0 16 2 35 6 57h85l-8 -45l-4 -46c0 -14.667 1.66699 -26.5 5 -35.5s9.33301 -13.5 18 -13.5v-14z" />
    <glyph glyph-name="colon" unicode=":" horiz-adv-x="387" 
d="M264 164c-18.667 -16.667 -32.667 -25.001 -42 -25.001c-7.33301 0 -18.333 8.33301 -33 25c-12.667 16 -19 27.667 -19 35c0.666992 8.66699 10.667 21.334 30 38.001s34 25.667 44 27c6.66699 0 17.667 -8.33301 33 -25c10.667 -13.333 16.667 -25 18 -35
c-2 -10.667 -12.333 -24 -31 -40zM265 30.999c-2 -9.33301 -12.5 -22 -31.5 -38s-33.167 -24 -42.5 -24s-20.666 8 -33.999 24c-11.333 16.667 -17 28.667 -17 36c2 11.333 12.5 25 31.5 41s32.833 24 41.5 24c7.33301 0 18.666 -8 33.999 -24c12 -14 18 -25.667 18 -35v-4z
" />
    <glyph glyph-name="section" unicode="&#xa7;" horiz-adv-x="313" 
 />
    <glyph glyph-name="guillemotleft" unicode="&#xab;" horiz-adv-x="420" 
d="M378 217l-125 -124l81 -124h-57l-81 124l125 124h57zM282 217l-125 -124l81 -124h-57l-81 124l125 124h57z" />
    <glyph glyph-name="logicalnot" unicode="&#xac;" horiz-adv-x="320" 
d="M287 93l-14 -66h-226l13 66h227z" />
    <glyph glyph-name="guillemotright" unicode="&#xbb;" horiz-adv-x="420" 
d="M353 93l-126 -124h-58l126 124l-79 124h57zM257 93l-126 -124h-58l126 124l-79 124h57z" />
    <glyph glyph-name="uni0531" unicode="&#x531;" horiz-adv-x="476" 
d="M385 474l-10 -191l-94 92c0 29.333 -1.33301 50.333 -4 63c-2 14.667 -14 22 -36 22v14h144zM165 -14c-14 0 -39.333 7 -76 21s-55 45 -55 93l19 319c0 14.667 -3.16699 25.167 -9.5 31.5s-17.833 9.5 -34.5 9.5v14h144l-24 -394c0 -53.333 12 -80 36 -80v-14zM456 95
l-32.001 -95h-139l-36 -7l-36 -7v14c38.667 6 68.334 17 89.001 33c9.33301 6.66699 19 15.5 29 26.5s18.667 22.833 26 35.5h99z" />
    <glyph glyph-name="uni0532" unicode="&#x532;" horiz-adv-x="447" 
d="M379 327h-100c3.33301 28 5 50.667 5 68c0 29.333 -3.5 49.833 -10.5 61.5s-16.167 17.5 -27.5 17.5v13c42 0 75.167 -9.16699 99.5 -27.5s36.5 -50.5 36.5 -96.5l-1 -18zM441 200h-104c0 30 -11.333 51 -34 63c-24 11.333 -57.667 17 -101 17v13h126
c36.667 0 64.667 -9 84 -27c19.333 -19.333 29 -41.333 29 -66zM201 474c-12 0 -22.832 -7.16699 -32.499 -21.5s-14.5 -33.833 -14.5 -58.5l-24 -394h-96l23 374c0 39.333 17.667 68 53 86s65.666 27 90.999 27v-13z" />
    <glyph glyph-name="uni0533" unicode="&#x533;" horiz-adv-x="549" 
d="M189 233c-48.667 0 -89 8.83301 -121 26.5s-48 44.5 -48 80.5l3 41c2.66699 20 18.667 42.667 48 68s64 38 104 38v-13c-12 0 -21.667 -6.5 -29 -19.5s-13 -32.5 -17 -58.5c-2.66699 -23.333 -4 -44 -4 -62c0 -34 5.66699 -56.667 17 -68c10 -12.667 25.667 -19 47 -19
v-14zM343 374l-23 -374h-96l24 394c0 26 -3.33301 45.667 -10 59s-15.667 20.333 -27 21v13c24 0 52 -9 84 -27s48 -46.667 48 -86zM543 164l-100 0.000976562c0 30 -5.5 51.333 -16.5 64s-30.5 19 -58.5 19v13h59c32 0 59.333 -8.33301 82 -25s34 -40.334 34 -71.001z" />
    <glyph glyph-name="uni0534" unicode="&#x534;" horiz-adv-x="550" 
d="M186 474c-19.333 0 -36.167 -11.168 -50.5 -33.501s-21.5 -74.833 -21.5 -157.5h-94c0 78.667 16.167 132.334 48.5 161.001s71.5 43 117.5 43v-13zM357.999 373.999l-23 -374h-96l25 394c0 24 -3.16699 43 -9.5 57s-15.5 21.667 -27.5 23v13
c14.667 0 40.167 -6.66699 76.5 -20s54.5 -44.333 54.5 -93zM556.999 163.999l-99 0.000976562c0 29.333 -5.66699 50.5 -17 63.5s-31.333 19.5 -60 19.5v13h60c32 0 59.333 -8.33301 82 -25s34 -40.334 34 -71.001z" />
    <glyph glyph-name="uni0535" unicode="&#x535;" horiz-adv-x="467" 
d="M460 217l-104 -0.000976562c0 30.667 -11.333 51.334 -34 62.001c-22 12 -55.667 18 -101 18v13h127c34 0 61.167 -8.5 81.5 -25.5s30.5 -39.5 30.5 -67.5zM165 -14.001c-14 0 -39.333 7 -76 21s-55 45 -55 93l19 319c0 14.667 -3.16699 25.167 -9.5 31.5
s-17.833 9.5 -34.5 9.5v14h144l-24 -394c0 -53.333 12 -80 36 -80v-14zM360 146.999c0 -60.667 -13.668 -102.668 -41.001 -126.001s-64 -35 -110 -35v14c14.667 0 26.834 10.833 36.501 32.5s14.5 59.834 14.5 114.501h100z" />
    <glyph glyph-name="uni0536" unicode="&#x536;" horiz-adv-x="622" 
d="M296 191c-50 0 -90.833 10 -122.5 30s-47.5 51.333 -47.5 94l4 48c3.33301 25.333 19.5 52.333 48.5 81s63.5 43 103.5 43v-15c-12.667 0 -22.5 -7.5 -29.5 -22.5s-12.5 -37.833 -16.5 -68.5l-5 -72c0 -39.333 5.66699 -66.333 17 -81c10 -14.667 26 -22 48 -22v-15z
M478 327c0 -53.333 -16.501 -100.331 -49.501 -140.998s-71.333 -71.834 -115 -93.501s-79.167 -32.5 -106.5 -32.5v13c36 0 72.333 29.667 109 89s55 130.333 55 213c0 37.333 -4 63.666 -12 78.999c-8 13.333 -20.333 20 -37 20v13c34.667 0 69.334 -14.333 104.001 -43
s52 -67.667 52 -117zM112.999 127.002l-8 -127h-98l9 127h97zM601.999 -26.998h-104c0 30 -11.5 50.833 -34.5 62.5s-56.833 17.5 -101.5 17.5v14h127c32.667 0 59.667 -9 81 -27s32 -40.333 32 -67z" />
    <glyph glyph-name="uni0537" unicode="&#x537;" horiz-adv-x="442" 
d="M436 213h-104c0 30 -11 50.833 -33 62.5s-56.333 17.5 -103 17.5v14h127c34.667 0 62.167 -8.66699 82.5 -26s30.5 -40 30.5 -68zM157 474l-28 -474h-95l24 419c0 14 -3.33301 24.333 -10 31s-18 10 -34 10v14h143zM355 -83h-99.999c0 31.333 -5.33301 53 -16 65
s-30.334 18 -59.001 18v14h59c32.667 0 60.167 -8.16699 82.5 -24.5s33.5 -40.5 33.5 -72.5z" />
    <glyph glyph-name="uni0538" unicode="&#x538;" horiz-adv-x="447" 
d="M385 283l-94.001 0.000976562c0 84.667 -4 137.667 -12 159s-19.667 32 -35 32v13c44.667 0 79.334 -13.333 104.001 -40s37 -81.334 37 -164.001zM200.999 474.001c-12 0 -22.832 -7.16699 -32.499 -21.5s-14.5 -33.833 -14.5 -58.5l-24 -394h-96l23 374
c0 39.333 17.667 68 53 86s65.666 27 90.999 27v-13zM423 -79.999l-104 -0.000976562c0 30.667 -11.333 51.334 -34 62.001c-22 12 -55.667 18 -101 18v14h127c35.333 0 63.333 -8.33301 84 -25c18.667 -16.667 28 -39.667 28 -69z" />
    <glyph glyph-name="uni0539" unicode="&#x539;" horiz-adv-x="645" 
d="M462 302c0 -56.667 -15.168 -104.5 -45.501 -143.5s-67.166 -58.5 -110.499 -58.5v13c14.667 0 27 12 37 36s15 57 15 99c0 84.667 -7 143.5 -21 176.5s-34.667 49.5 -62 49.5v13c54 0 98.667 -15.167 134 -45.5s53 -76.833 53 -139.5zM637.999 229h-94.999
c0 22 -4.33301 39.333 -13 52s-23 19 -43 19v13h73c21.333 0 39.666 -7 54.999 -21c15.333 -16.667 23 -37.667 23 -63zM204 474c-11.333 0 -22.501 -7.33301 -33.501 -22s-16.5 -34 -16.5 -58l-24 -394h-96l23 374c0 30 14.833 56.333 44.5 79s63.834 34 102.501 34v-13z
M318.999 300c-22 0 -38.834 -7.83301 -50.501 -23.5s-17.5 -46.5 -17.5 -92.5c0 -16 0.333008 -27.5 1 -34.5s2.83398 -14.5 6.50098 -22.5s11.167 -12.667 22.5 -14v-13c-33.333 0 -60.666 11 -81.999 33c-22 21.333 -33 48.333 -33 81c0 34 14.167 59 42.5 75
s65.166 24 110.499 24v-13z" />
    <glyph glyph-name="uni053A" unicode="&#x53a;" horiz-adv-x="556" 
d="M549 189l-94 0.000976562c0 22 -4.66699 39.333 -14 52s-23.333 19 -42 19v13h72c22 0 40.5 -7.33301 55.5 -22s22.5 -35.334 22.5 -62.001zM371 474.001l-21.001 -373.999c0 -38.667 -18.167 -67.334 -54.5 -86.001s-66.166 -28 -89.499 -28v14
c12 0 22.833 7.16699 32.5 21.5s14.5 33.833 14.5 58.5l18 339c0 12.667 -3.5 22.667 -10.5 30s-17.833 11 -32.5 11v14h143zM203.999 260.002c-26 0 -45.333 -13.333 -58 -40c-14.667 -26.667 -22 -69 -22 -127c0 -30 3 -53 9 -69s15.333 -24 28 -24v-14
c-40.667 0 -74 14.333 -100 43c-27.333 27.333 -41 60.666 -41 99.999c0 42.667 18 77.334 54 104.001s79.333 40 130 40v-13z" />
    <glyph glyph-name="uni053B" unicode="&#x53b;" horiz-adv-x="375" 
d="M355 160l-113 -0.000976562c1.33301 10 2.33301 21.333 3 34s1 24.334 1 35.001c0 38 -5 64 -15 78c-11.333 13.333 -25 20 -41 20v13c44.667 0 83.667 -12.5 117 -37.5s50 -63.167 50 -114.5c0 -12 -0.666992 -21.333 -2 -28zM157 473.999l-28 -474h-95l24 419
c0 14 -3.33301 24.333 -10 31s-18 10 -34 10v14h143z" />
    <glyph glyph-name="uni053C" unicode="&#x53c;" horiz-adv-x="357" 
d="M157 474l-28 -474h-95l24 419c0 14 -3.33301 24.333 -10 31s-18 10 -34 10v14h143zM350 -83l-99.999 0.000976562c0 31.333 -5.66699 52.666 -17 63.999c-10.667 12.667 -30.334 19 -59.001 19v14h60c30 0 56.833 -8.5 80.5 -25.5s35.5 -40.833 35.5 -71.5z" />
    <glyph glyph-name="uni053D" unicode="&#x53d;" horiz-adv-x="498" 
d="M157 474l-28 -474h-95l24 419c0 14 -3.33301 24.333 -10 31s-18 10 -34 10v14h143zM478 320c0 -85.333 -11 -140.667 -33 -166s-57.333 -38 -106 -38v13c15.333 0 27 11 35 33c6.66699 22 10 74.667 10 158h94zM301 115.999c-44 0 -74.667 12 -92 36
c-16 24 -24 80 -24 168h94c0 -103.333 0.833008 -161 2.5 -173s8.16699 -18 19.5 -18v-13z" />
    <glyph glyph-name="uni053E" unicode="&#x53e;" horiz-adv-x="611" 
d="M167 313c-44.667 0 -82.833 10.832 -114.5 32.499s-47.5 55.834 -47.5 102.501l2 26h114c-1.33301 -9.33301 -2.33301 -20 -3 -32s-1 -22 -1 -30c0 -32 4.66699 -54.167 14 -66.5s21.333 -18.5 36 -18.5v-14zM605.001 230.999h-100l2 14v10c0 20.667 -5 35.5 -15 44.5
s-27.333 13.5 -52 13.5v14h61c30 0 54.833 -6.83301 74.5 -20.5s29.5 -34.5 29.5 -62.5v-13zM494.001 147.999c0 -48 -18.167 -87 -54.5 -117s-79.5 -45 -129.5 -45v14c26 0 45.833 14 59.5 42s20.5 79.333 20.5 154c0 36 -5 64.5 -15 85.5s-22.667 31.5 -38 31.5v14
c46.667 0 84.5 -14.667 113.5 -44s43.5 -74.333 43.5 -135zM295.001 312.999c-25.333 0 -44.834 -13.8311 -58.501 -41.498s-20.5 -78.834 -20.5 -153.501c0 -36 5 -64.667 15 -86s22.667 -32 38 -32v-14c-46 0 -83.667 15.167 -113 45.5s-44 75.166 -44 134.499
c0 51.333 17.833 91 53.5 119s78.834 42 129.501 42v-14z" />
    <glyph glyph-name="uni053F" unicode="&#x53f;" horiz-adv-x="412" 
d="M178 80c-16 0 -44 7 -84 21s-60 44.667 -60 92l14 226c0 14.667 -3.16699 25.167 -9.5 31.5s-17.833 9.5 -34.5 9.5v14h143l-18 -301c0 -25.333 5.33301 -45 16 -59s21.667 -21 33 -21v-13zM352 354l-22 -354h-96l19 299c0 14.667 -3.5 25.167 -10.5 31.5
s-18.167 9.5 -33.5 9.5v14h143z" />
    <glyph glyph-name="uni0540" unicode="&#x540;" horiz-adv-x="545" 
d="M403 411c0 -10 -13.667 -23.001 -41 -39.001l-41.5 -23.5l-41.5 -21.5l-8 8c14 13.333 21 25.333 21 36c-2 2.66699 -3.66699 4.66699 -5 6c-5.33301 6 -10.666 11 -15.999 15c-13.333 11.333 -20 19.666 -20 24.999c0 10.667 12.667 26.834 38 48.501
s44.666 32.5 57.999 32.5c0 -13.333 9.16699 -28.666 27.5 -45.999s27.833 -31 28.5 -41zM511 -27.001l-13.001 0.00195312c0 26 -37.333 50.667 -112 74s-157.167 43.166 -247.5 59.499s-143.166 24.5 -158.499 24.5l147 100l8 -7l-8 -9l-3 -11c0 -11.333 25 -23 75 -35
l83 -18c52 -10.667 85 -17.334 99 -20.001c70.667 -12 109 -20.333 115 -25c1.33301 -1.33301 3.5 -5.83301 6.5 -13.5s4.5 -19.167 4.5 -34.5z" />
    <glyph glyph-name="uni0541" unicode="&#x541;" horiz-adv-x="492" 
d="M234 474c-20.667 0 -37.666 -11.666 -50.999 -34.999c-14 -22 -21 -66 -21 -132h-114c0 59.333 18.667 104.166 56 134.499s80.666 45.5 129.999 45.5v-13zM445.001 303.001c0 -52.667 -18.998 -99.9961 -56.998 -141.996s-72 -71 -102 -87
c2.66699 -3.33301 6.5 -6.33301 11.5 -9s12.833 -6.33398 23.5 -11.001c16.667 -7.33301 30 -11 40 -11c11.333 0 23 2.66699 35 8l25 16v-16c-12.667 -11.333 -29.667 -24.666 -51 -39.999c-21.333 -13.333 -49.333 -20 -84 -20c-16.667 0 -31.667 3.33301 -45 10
c-4.66699 1.33301 -9.33398 3 -14.001 5s-14.334 6.66699 -29.001 14c-15.333 -8 -33.5 -15.5 -54.5 -22.5s-41.5 -10.5 -61.5 -10.5c-18 0 -35 6.66699 -51 20s-24 25.333 -24 36h12c0 -6.66699 8.16699 -14.334 24.5 -23.001s33.166 -13 50.499 -13
c12 0 24.833 2.5 38.5 7.5s22.334 8.5 26.001 10.5s8.83398 6 15.501 12c-13.333 13.333 -31 26.333 -53 39c-21.333 10 -39.333 15 -54 15c-15.333 0 -26.333 -1.33301 -33 -4s-11.667 -6.33398 -15 -11.001h-12c7.33301 14 19.666 28.167 36.999 42.5
s48.666 21.5 93.999 21.5c22 0 46.833 -8.16699 74.5 -24.5s44.167 -24.5 49.5 -24.5c12.667 0 27.834 21.167 45.501 63.5s26.5 93.166 26.5 152.499v92c0 25.333 -5.66699 44.166 -17 56.499s-23.333 18.5 -36 18.5v13c46 0 84.833 -15.5 116.5 -46.5
s47.5 -76.833 47.5 -137.5z" />
    <glyph glyph-name="uni0542" unicode="&#x542;" horiz-adv-x="547" 
d="M186 474c-19.333 0 -36.167 -11.166 -50.5 -33.499s-21.5 -74.833 -21.5 -157.5h-94c0 79.333 16.167 133.166 48.5 161.499s71.5 42.5 117.5 42.5v-13zM347.999 374.001l-22 -374h-97l24 394c0 25.333 -3 45 -9 59c-8.66699 14 -18 21 -28 21v13c24 0 52 -9 84 -27
s48 -46.667 48 -86zM539.999 -82.999h-99c0 30 -5.5 51.333 -16.5 64s-30.833 19 -59.5 19v14h60c30 0 56.667 -8.33301 80 -25s35 -40.667 35 -72z" />
    <glyph glyph-name="uni0543" unicode="&#x543;" horiz-adv-x="481" 
d="M461 480c0 -44.667 -18.168 -82.333 -54.501 -113s-80.166 -53 -131.499 -67v13c21.333 9.33301 39 25.333 53 48c12.667 24 19 63.667 19 119h114zM418.999 0.000976562l-114 0.000976562c0 105.333 -20.5 181.666 -61.5 228.999s-104.5 71 -190.5 71v13
c124 0 216 -24.333 276 -73s90 -128.667 90 -240zM192.999 220.002c-21.333 -13.333 -38.666 -35.668 -51.999 -67.001s-20 -82.333 -20 -153h-114c0 24 2 45.5 6 64.5s10.667 36.5 20 52.5c17.333 30.667 39.666 54.667 66.999 72c24 16.667 55 31.334 93 44.001v-13z" />
    <glyph glyph-name="uni0544" unicode="&#x544;" horiz-adv-x="584" 
d="M578 389l-95.001 0.000976562c0 23.333 -4.66699 40.666 -14 51.999c-8.66699 12.667 -22.667 19 -42 19v14h72c20.667 0 39.334 -7.33301 56.001 -22c15.333 -15.333 23 -36.333 23 -63zM381.999 474.001l-21.001 -373.999c0 -38.667 -18.167 -67.334 -54.5 -86.001
s-66.166 -28 -89.499 -28v14c12 0 22.833 7.16699 32.5 21.5s14.5 33.833 14.5 58.5l19 339c0 11.333 -3.66699 21 -11 29s-18.333 12 -33 12v14h143zM164.998 -13.998c-14 0 -39.333 7 -76 21s-55 45 -55 93l19 319c0 14.667 -3.16699 25.167 -9.5 31.5
s-17.833 9.5 -34.5 9.5v14h144l-24 -394c0 -53.333 12 -80 36 -80v-14z" />
    <glyph glyph-name="uni0545" unicode="&#x545;" horiz-adv-x="490" 
d="M256 474c-22.667 0 -41.833 -7 -57.5 -21s-23.5 -36 -23.5 -66h-95c0 36 20 61.667 60 77s78.667 23 116 23v-13zM165.001 340l-8 -127h-114l10 127h112zM430.001 128c0 -42 -18.333 -76.1689 -55 -102.502s-79.667 -39.5 -129 -39.5v14c25.333 0 45 13.167 59 39.5
s21 67.833 21 124.5c0 27.333 -5 51.333 -15 72s-22 31 -36 31v13c16.667 0 30 9 40 27c10.667 16.667 16 47.334 16 92.001c0 28 -3.83301 47.5 -11.5 58.5s-17.167 16.5 -28.5 16.5v13c37.333 0 69.833 -7.5 97.5 -22.5s41.5 -44.833 41.5 -89.5
c0 -22.667 -8.66699 -43.5 -26 -62.5s-41 -32.167 -71 -39.5c30 -10.667 53.667 -27.667 71 -51s26 -54.666 26 -93.999zM212.001 -14.002c-49.333 0 -91.332 14.167 -125.999 42.5s-52 73.5 -52 135.5h113c0 -64 6.33301 -107.333 19 -130
c11.333 -22.667 26.666 -34 45.999 -34v-14z" />
    <glyph glyph-name="uni0546" unicode="&#x546;" horiz-adv-x="523" 
d="M144 389h-72c-22 0 -40.333 7.66699 -55 23c-16 14 -24 34.667 -24 62h95c0 -22 4.66699 -39.5 14 -52.5s23.333 -19.5 42 -19.5v-13zM288 -14c-24.667 0 -53 9 -85 27s-48 47 -48 87l21 300h97l-23 -320c0 -26.667 3.66699 -46.667 11 -60s16.333 -20 27 -20v-14z
M476 253l-9.00098 -153.001c0 -39.333 -18.167 -68.166 -54.5 -86.499s-66.166 -27.5 -89.499 -27.5v14c11.333 -0 22 7.33301 32 22s15 34 15 58l9 173h97z" />
    <glyph glyph-name="uni0547" unicode="&#x547;" horiz-adv-x="523" 
d="M470 423l-63 -74.999l-19 17c-18.667 16 -42 28.667 -70 38c-27.333 10.667 -63 16 -107 16c-35.333 0 -68.333 -7.83301 -99 -23.5s-54.667 -35.834 -72 -60.501l-12 13c23.333 36 56.333 68.833 99 98.5s90.667 44.5 144 44.5c56 0 98.833 -7.66699 128.5 -23
s53.167 -30.333 70.5 -45zM253 0.000976562c-64.667 0 -119.667 15 -165 45s-68 71 -68 123c0 68.667 24.167 121.167 72.5 157.5s93.5 54.5 135.5 54.5v-13c-24 0 -46 -16.833 -66 -50.5s-30 -87.167 -30 -160.5c0 -46 14.667 -81.167 44 -105.5s55 -36.5 77 -36.5v-14z
M503 -82.999h-99.999c0 31.333 -5.33301 53 -16 65s-30.334 18 -59.001 18v14h60c30 0 57 -8.33301 81 -25c22.667 -17.333 34 -41.333 34 -72z" />
    <glyph glyph-name="uni0548" unicode="&#x548;" horiz-adv-x="438" 
d="M377 374l-22 -374h-97l25 394c0 26 -3.33301 45.667 -10 59s-15.667 20.333 -27 21v13c22.667 0 50.167 -9 82.5 -27s48.5 -46.667 48.5 -86zM201 474c-12 0 -22.832 -7.16699 -32.499 -21.5s-14.5 -33.833 -14.5 -58.5l-24 -394h-96l23 374c0 39.333 17.667 68 53 86
s65.666 27 90.999 27v-13z" />
    <glyph glyph-name="uni0549" unicode="&#x549;" horiz-adv-x="494" 
d="M222 474c-20.667 0 -37.666 -11.666 -50.999 -34.999c-14 -22 -21 -66 -21 -132h-114c0 59.333 18.667 104.166 56 134.499s80.666 45.5 129.999 45.5v-13zM447.001 313.001c0 -44 -23.834 -87.168 -71.501 -129.501s-90.167 -63.5 -127.5 -63.5v13
c16.667 0 33.834 20.167 51.501 60.5s26.5 93.833 26.5 160.5c0 38.667 -5.33301 68.334 -16 89.001c-12.667 20.667 -26.667 31 -42 31v13c46.667 0 88.167 -15.5 124.5 -46.5s54.5 -73.5 54.5 -127.5zM414 80l-64 -87l-343 54l60 86z" />
    <glyph glyph-name="uni054A" unicode="&#x54a;" horiz-adv-x="502" 
d="M166 460c-12.667 0 -26.832 -12 -42.499 -36s-23.5 -61 -23.5 -111c0 -11.333 0.666992 -21.833 2 -31.5s3 -17.834 5 -24.501c5.33301 -13.333 13 -23.333 23 -30v-14c-14.667 7.33301 -28 14.333 -40 21c-14.667 8.66699 -28.667 17.667 -42 27
c-27.333 20 -41 49 -41 87c0 40.667 16.667 71.834 50 93.501s69.666 32.5 108.999 32.5v-14zM284.002 474l-23 -327l-87 46l18 281h92zM442.002 374l-23 -374h-96l25 394c0 24 -3.16699 41 -9.5 51s-15.833 15 -28.5 15v14c40 0 72 -9 96 -27s36 -42.333 36 -73z" />
    <glyph glyph-name="uni054B" unicode="&#x54b;" horiz-adv-x="553" 
d="M486 299c0 -60.667 -34.8311 -116.831 -104.498 -168.498s-135.834 -77.5 -198.501 -77.5v14c14 0 29 6 45 18c15.333 13.333 23 30 23 50c0 12.667 -20.667 36.167 -62 70.5s-62 64.166 -62 89.499c0 16.667 8 34 24 52l48 48c0 -40.667 18 -75 54 -103s54 -59 54 -93
c0 -23.333 -2.16699 -40 -6.5 -50s-6.83301 -15.667 -7.5 -17c-2.66699 -4.66699 -5.33398 -8.66699 -8.00098 -12c18.667 15.333 39.667 36.666 63 63.999c20 24 30 54.333 30 91c0 61.333 -13.167 102 -39.5 122s-65.166 30 -116.499 30
c4.66699 5.33301 9 9.66602 13 12.999c10 8.66699 20.667 16.667 32 24c18 12 42 18 72 18c37.333 0 71.166 -14.167 101.499 -42.5s45.5 -75.166 45.5 -140.499zM113.002 127.003l-8 -127h-98l9 127h97zM534.002 -42.9971h-100c0 30 -5.5 51.333 -16.5 64
s-31.167 19 -60.5 19v13h60c32 0 59.667 -8 83 -24c22.667 -17.333 34 -41.333 34 -72z" />
    <glyph glyph-name="uni054C" unicode="&#x54c;" horiz-adv-x="567" 
d="M383 374l-22 -374h-97l25 394c0 26 -3.5 45.833 -10.5 59.5s-16.167 20.5 -27.5 20.5v13c24 0 52 -9 84 -27s48 -46.667 48 -86zM201 474c-12 0 -22.832 -7.16699 -32.499 -21.5s-14.5 -33.833 -14.5 -58.5l-24 -394h-96l23 374c0 39.333 17.667 68 53 86
s65.666 27 90.999 27v-13zM560.001 169l-95 0.000976562c0 22 -4.33301 39.667 -13 53c-9.33301 12 -23.333 18 -42 18v13h71c21.333 0 40.333 -7.33301 57 -22c14.667 -14.667 22 -35.334 22 -62.001z" />
    <glyph glyph-name="uni054D" unicode="&#x54d;" horiz-adv-x="440" 
d="M380 474l-21.001 -373.999c0 -38.667 -17.667 -67.334 -53 -86.001c-18.667 -9.33301 -35.167 -16.333 -49.5 -21s-28.166 -7 -41.499 -7v14c12 0 22.833 7.16699 32.5 21.5s14.5 33.833 14.5 58.5l19 339c0 11.333 -3.66699 21 -11 29s-18.333 12 -33 12v14h143z
M164.999 -13.999c-14 0 -39.333 7 -76 21s-55 45 -55 93l19 319c0 14.667 -3.16699 25.167 -9.5 31.5s-17.833 9.5 -34.5 9.5v14h144l-24 -394c0 -53.333 12 -80 36 -80v-14z" />
    <glyph glyph-name="uni054E" unicode="&#x54e;" horiz-adv-x="558" 
d="M361 474l-28 -474h-96l24 419c0 14.667 -3.16699 25.167 -9.5 31.5s-17.833 9.5 -34.5 9.5v14h144zM191 73c-40 0 -76.167 11.167 -108.5 33.5s-48.5 48.833 -48.5 79.5l10 133c0 14.667 -3.5 25.167 -10.5 31.5s-18.167 9.5 -33.5 9.5v14h144l-15 -208
c0 -22.667 7 -41.5 21 -56.5s27.667 -22.5 41 -22.5v-14zM551 -83h-99c0 31.333 -5.66699 53 -17 65s-31 18 -59 18v14h60c30.667 0 58 -8.33301 82 -25c22 -17.333 33 -41.333 33 -72z" />
    <glyph glyph-name="uni054F" unicode="&#x54f;" horiz-adv-x="436" 
d="M365 340h-99l4 58c0 29.333 -4.33301 49.333 -13 60s-19 16 -31 16v13c44 0 78.667 -7.66699 104 -23s38 -45.333 38 -90zM376 131c0 -55.333 -14 -93.333 -42 -114s-62 -31 -102 -31v14c14.667 0 27 6.5 37 19.5s15 34.167 15 63.5c0 35.333 -20.667 67.666 -62 96.999
l-117 73c-42 32 -63 67.333 -63 106c0 38 15.167 68.833 45.5 92.5s61.5 35.5 93.5 35.5v-13c-16 0 -29.667 -8 -41 -24c-12.667 -15.333 -19 -33.666 -19 -54.999c0 -28 21.333 -54.333 64 -79l125 -72c44 -33.333 66 -71 66 -113zM180 -14c-43.333 0 -81 12.833 -113 38.5
s-48 62.167 -48 109.5v12l1 14h114c-2.66699 -21.333 -4 -42.333 -4 -63c0 -34 4.66699 -58.667 14 -74s21.333 -23 36 -23v-14z" />
    <glyph glyph-name="uni0550" unicode="&#x550;" horiz-adv-x="405" 
d="M385 283h-93.999c0 84.667 -4 137.667 -12 159s-19.667 32 -35 32v13c45.333 0 80.166 -13.5 104.499 -40.5s36.5 -81.5 36.5 -163.5zM201.001 474c-12 0 -22.832 -7.16699 -32.499 -21.5s-14.5 -33.833 -14.5 -58.5l-24 -394h-96l23 374c0 39.333 17.667 68 53 86
s65.666 27 90.999 27v-13z" />
    <glyph glyph-name="uni0551" unicode="&#x551;" horiz-adv-x="457" 
d="M219 474c-13.333 0 -23.665 -3.66699 -30.998 -11c-8.66699 -6 -14.334 -20 -17.001 -42l-5 -38v-9c0 -24 4.16699 -41.167 12.5 -51.5s19.166 -15.5 32.499 -15.5v-14c-16 0 -32.333 -7.33301 -49 -22c-16.667 -16.667 -25 -36.667 -25 -60h-112
c0 27.333 15.333 49.333 46 66c32 15.333 59.333 23 82 23c-26 6 -47 15.833 -63 29.5s-24 30.167 -24 49.5l5 40c2 22.667 17 39.667 45 51s62.333 17 103 17v-13zM397.001 135c0 -44.667 -18.501 -80.6641 -55.501 -107.997s-79.833 -41 -128.5 -41v14
c25.333 0 45 13.5 59 40.5s21 70.5 21 130.5c0 40 -4.66699 71 -14 93c-9.33301 19.333 -21.333 29 -36 29v14c16 0 29.167 8 39.5 24s15.5 43 15.5 81c0 28 -3.33301 45 -10 51c-6 7.33301 -16 11 -30 11v13c40.667 0 74.334 -5.33301 101.001 -16
c25.333 -11.333 38 -39 38 -83c0 -22.667 -8.5 -41.334 -25.5 -56.001s-40.833 -25.334 -71.5 -32.001c27.333 0 50.333 -12.333 69 -37c9.33301 -13.333 16.333 -30.333 21 -51s7 -46.334 7 -77.001zM180 -13.9971c-43.333 0 -81 12.833 -113 38.5s-48 62.167 -48 109.5v12
l1 14h114c-2.66699 -21.333 -4 -42.333 -4 -63c0 -34 4.66699 -58.667 14 -74s21.333 -23 36 -23v-14z" />
    <glyph glyph-name="uni0552" unicode="&#x552;" horiz-adv-x="383" 
d="M157 474l-28 -474h-95l24 419c0 14 -3.33301 24.333 -10 31s-18 10 -34 10v14h143zM376 133h-67.002c-34 0 -55.667 31.167 -65 93.5s-29.333 93.5 -60 93.5v13c48.667 0 82.334 -6.5 101.001 -19.5s31.334 -35.167 38.001 -66.5l9.5 -41.5
c3 -13 6.16699 -23.833 9.5 -32.5c6 -17.333 17.333 -26 34 -26v-14z" />
    <glyph glyph-name="uni0553" unicode="&#x553;" horiz-adv-x="536" 
d="M489 254c0 -47.333 -17.333 -82.665 -52 -105.998s-72.667 -35 -114 -35v14c16.667 0 32.667 11 48 33c14 24 21 63.667 21 119c0 29.333 -6 50.166 -18 62.499s-25.333 18.5 -40 18.5v14c32.667 0 66.667 -9.33301 102 -28s53 -49.334 53 -92.001zM186 360.001
c-21.333 0 -38 -14.168 -50 -42.501s-18 -64.833 -18 -109.5c0 -29.333 6 -50 18 -62c10.667 -12.667 23.667 -19 39 -19v-14c-33.333 0 -67.5 9.33301 -102.5 28s-52.5 49.334 -52.5 92.001c0 48 17.5 83.5 52.5 106.5s72.833 34.5 113.5 34.5v-14zM317 474l-27 -474h-96
l24 419c0 14.667 -3.16699 25.167 -9.5 31.5s-17.833 9.5 -34.5 9.5v14h143z" />
    <glyph glyph-name="uni0554" unicode="&#x554;" horiz-adv-x="608" 
d="M525 355c0 -40.667 -17.667 -70.999 -53 -90.999c-18 -10 -37.667 -17.667 -59 -23s-45.333 -8 -72 -8v14c26 0 45.833 10.167 59.5 30.5s20.5 58.166 20.5 113.499c0 27.333 -2.66699 48.333 -8 63c-6 13.333 -15.333 20 -28 20v13c39.333 0 72.5 -12.5 99.5 -37.5
s40.5 -56.5 40.5 -94.5zM341 474.001c-11.333 0 -21.834 -7.16699 -31.501 -21.5s-14.5 -33.833 -14.5 -58.5l-24 -394h-97l23 374c0 39.333 17.833 68 53.5 86s65.834 27 90.501 27v-13zM143.999 187.001h-72c-22 0 -40.667 7.5 -56 22.5s-23 35.5 -23 61.5h95
c0 -21.333 4.66699 -38.5 14 -51.5s23.333 -19.5 42 -19.5v-13zM601.999 107.001h-104.001c0 30 -11.667 50.667 -35 62c-22 12 -55.667 18 -101 18v13h127c30.667 0 57.334 -9.66699 80.001 -29c22 -20.667 33 -42 33 -64z" />
    <glyph glyph-name="uni0555" unicode="&#x555;" horiz-adv-x="498" 
d="M451 263c0 -55.333 -12.333 -104.668 -37 -148.001c-26 -41.333 -56.167 -73.166 -90.5 -95.499s-62.5 -33.5 -84.5 -33.5v14c23.333 -0 46.5 30.833 69.5 92.5s34.5 138.5 34.5 230.5c0 58.667 -5.66699 98.667 -17 120c-13.333 20.667 -30.333 31 -51 31v13
c49.333 0 91 -18.833 125 -56.5s51 -93.5 51 -167.5zM231 473.998c-30 0 -55.334 -27.665 -76.001 -82.998s-31 -142 -31 -260c0 -37.333 5.5 -68.5 16.5 -93.5s26.833 -37.5 47.5 -37.5v-14c-22.667 0 -47.167 7.16699 -73.5 21.5s-48.666 38.666 -66.999 72.999
s-27.5 79.166 -27.5 134.499c0 74.667 22.833 138.667 68.5 192s93.167 80 142.5 80v-13z" />
    <glyph glyph-name="uni0556" unicode="&#x556;" horiz-adv-x="560" 
d="M191 307c-39.333 0 -71.666 7 -96.999 21s-38 37.667 -38 71c0 29.333 13.333 51.333 40 66s54.334 22 83.001 22v-13c-12.667 0 -21.834 -5.16699 -27.501 -15.5s-8.5 -28.833 -8.5 -55.5c0 -34 4.66699 -56.333 14 -67s20.666 -16 33.999 -16v-13zM333 374
l-23.001 -374h-97l25 394c0 26 -3.33301 45.667 -10 59s-15.667 20.333 -27 21v13c22.667 0 50.334 -9 83.001 -27s49 -46.667 49 -86zM513.999 141c0 -46.667 -18.666 -81.834 -55.999 -105.501s-76.666 -35.5 -117.999 -35.5v14c19.333 0 36.666 14.833 51.999 44.5
s23 70.834 23 123.501c0 32 -4.66699 56.333 -14 73c-8 16.667 -20.333 25 -37 25v13c61.333 0 101.666 -13.167 120.999 -39.5s29 -63.833 29 -112.5zM180 0c-42.667 0 -80.167 12.668 -112.5 38.001s-48.5 61.666 -48.5 108.999v13l1 13h114
c-2.66699 -21.333 -4 -42.333 -4 -63c0 -34 4.5 -58.5 13.5 -73.5s21.167 -22.5 36.5 -22.5v-14z" />
    <glyph glyph-name="uni055A" unicode="&#x55a;" horiz-adv-x="355" 
 />
    <glyph glyph-name="uni055B" unicode="&#x55b;" horiz-adv-x="160" 
d="M144 435c-9.33301 -27.333 -25.334 -50.833 -48.001 -70.5s-43.334 -29.5 -62.001 -29.5l26 17c8.66699 6.66699 15.667 17 21 31c4 13.333 6 23 6 29c0 7.33301 -1.33301 13.5 -4 18.5s-8.33398 10.833 -17.001 17.5c-11.333 10.667 -17.666 20.667 -18.999 30
c2.66699 18 11.334 31.833 26.001 41.5s28.667 14.5 42 14.5c10.667 0 20.334 -3.33301 29.001 -10c6 -6 9 -17.333 9 -34c0 -10 -0.666992 -18 -2 -24z" />
    <glyph glyph-name="uni055C" unicode="&#x55c;" horiz-adv-x="175" 
d="M192 560l2.99902 -43.001c0 -18 -3 -33 -9 -45c-8 -12.667 -20.333 -24.667 -37 -36l-116 -70c-10 -6 -17.667 -13 -23 -21l-13 -20l-12 -5l-3 41c0 18.667 3.16699 33.834 9.5 45.501s18.833 24.167 37.5 37.5l117 70c10.667 8 18.334 15.333 23.001 22l13 19z" />
    <glyph glyph-name="uni055D" unicode="&#x55d;" horiz-adv-x="228" 
d="M149 367c-2.66699 -2.66699 -7.33496 -4.66602 -14.002 -5.99902c-5.33301 0 -9.83301 1.66699 -13.5 5s-12.834 27.666 -27.501 72.999s-22 74.666 -22 87.999c0.666992 1.33301 1.33398 2.83301 2.00098 4.5s2.33398 3.83398 5.00098 6.50098s10.334 4 23.001 4
c14 0 24.333 -2.33301 31 -7c8 -4 13.333 -20 16 -48c4 -28 6 -54.667 6 -80v-21c-0.666992 -10.667 -2.66699 -17 -6 -19z" />
    <glyph glyph-name="uni055E" unicode="&#x55e;" horiz-adv-x="219" 
d="M223 435c-4 -23.333 -14.1699 -41.833 -30.5029 -55.5s-34.166 -20.5 -53.499 -20.5c-16 0 -29.167 6.83301 -39.5 20.5s-15.5 40.5 -15.5 80.5c2 4.66699 4.33301 7.66699 7 9s6.66699 2 12 2l14 -2c2 -1.33301 3.66699 -4.33301 5 -9c0 -18 1 -31 3 -39
c3.33301 -7.33301 9.33301 -11 18 -11s15.667 2.33301 21 7c4 5.33301 7 11 9 17l1 17c0 14.667 -4.66699 28.667 -14 42c-9.33301 11.333 -25.666 17 -48.999 17c-18.667 0 -36.667 -12.333 -54 -37s-26 -70.667 -26 -138c-3.33301 -4.66699 -6 -7.66699 -8 -9l-18 -3
c-16.667 0 -25 4 -25 12c0 88 15.167 147.5 45.5 178.5s61.833 46.5 94.5 46.5c30.667 0 55.834 -9 75.501 -27s29.5 -42.333 29.5 -73z" />
    <glyph glyph-name="uni0561" unicode="&#x561;" horiz-adv-x="438" 
d="M405 27c0 -12.667 -8.33203 -29.167 -24.999 -49.5s-29.667 -30.5 -39 -30.5c-6.66699 0 -16.834 8 -30.501 24s-23.5 24 -29.5 24c-4.66699 0 -14.667 -8.66699 -30 -26s-26.666 -26 -33.999 -26c-3.33301 0 -12.666 8 -27.999 24s-26 24 -32 24
c-4.66699 0 -14.834 -7.33301 -30.501 -22s-26.834 -22 -33.501 -22c-7.33301 0 -19 8.83301 -35 26.5s-24 34.167 -24 49.5c0 10 10.167 31.833 30.5 65.5s35.166 50.5 44.499 50.5c6.66699 0 15.834 -15.333 27.501 -46s20.167 -46 25.5 -46c4 0 14.5 15.333 31.5 46
s30.167 46 39.5 46c8 0 17.167 -15 27.5 -45s18.5 -45.667 24.5 -47c4 0 15.333 15.333 34 46c16.667 30.667 29.334 46 38.001 46c7.33301 0 17.666 -13.667 30.999 -41c11.333 -28 17 -51.667 17 -71z" />
    <glyph glyph-name="uni0562" unicode="&#x562;" horiz-adv-x="406" 
d="M386 87l-10.9971 -44.001c-4.66699 -14 -11.667 -28.333 -21 -43h-235c-6.66699 -8.66699 -15.334 -29.667 -26.001 -63c-4.66699 -16 -8.16699 -30.833 -10.5 -44.5s-3.5 -27.5 -3.5 -41.5c0 -15.333 3.5 -28.5 10.5 -39.5s15.5 -16.5 25.5 -16.5
c14 0 26.667 4.66699 38 14l30 29c-7.33301 -33.333 -17.666 -65.5 -30.999 -96.5s-36.333 -46.5 -69 -46.5c-19.333 0 -33.666 5.66699 -42.999 17c-10.667 10.667 -16 24 -16 40l3 19l88 332l3 22c0 17.333 -4.33301 36 -13 56l-25 62c0 4.66699 10.667 19.834 32 45.501
s37 38.5 47 38.5c2 -2.66699 3.66699 -4.66699 5 -6c5.33301 -6.66699 9.66602 -13.334 12.999 -20.001c9.33301 -17.333 16.666 -26 21.999 -26c4.66699 0 14.5 8.66699 29.5 26s26.5 26 34.5 26c4.66699 0 14.667 -12.333 30 -37c14 -25.333 21 -43.666 21 -54.999
s-9.16699 -30.833 -27.5 -58.5s-31.5 -41.5 -39.5 -41.5c-8.66699 0 -16.834 11.333 -24.501 34s-15.5 34 -23.5 34c-6.66699 0 -18.334 -14.333 -35.001 -43s-25 -53 -25 -73h247z" />
    <glyph glyph-name="uni0563" unicode="&#x563;" horiz-adv-x="481" 
d="M461 87l-14 -45c-4 -17.333 -6 -31.333 -6 -42h-160c-6 0 -16.167 -18 -30.5 -54s-21.5 -67.667 -21.5 -95c0 -16.667 5 -30.334 15 -41.001s22.333 -16 37 -16c11.333 0 22 5 32 15l28 29c-8 -32 -19.333 -63.833 -34 -95.5s-38 -47.5 -70 -47.5
c-16.667 0 -29.667 5.66699 -39 17c-8 12 -12 27.667 -12 47c0 24 4.66699 54.167 14 90.5s19 69.833 29 100.5l17 50h-212l17 84c16 66 38.833 122.833 68.5 170.5s67.5 71.5 113.5 71.5c24.667 0 46 -10.333 64 -31c9.33301 -11.333 16.333 -22.666 21 -33.999
s7 -24 7 -38c0 -14.667 -2.5 -35 -7.5 -61s-11.833 -51 -20.5 -75h164zM269 87l3.99902 22.001l2 21c0 27.333 -8.16699 47.666 -24.5 60.999s-34.166 20 -53.499 20c-38.667 0 -66.167 -14.167 -82.5 -42.5s-28.5 -55.5 -36.5 -81.5h191z" />
    <glyph glyph-name="uni0564" unicode="&#x564;" horiz-adv-x="525" 
d="M505 87l-11.002 -46c-2 -9.33301 -4.16699 -16.666 -6.5 -21.999s-5.83301 -11.666 -10.5 -18.999h-206c-8 0 -19.667 -14.167 -35 -42.5s-23 -61.5 -23 -99.5c0 -16 3.66699 -30.667 11 -44c5.33301 -13.333 15 -20 29 -20c16.667 0 30.667 5 42 15l30 29
c-8.66699 -33.333 -20.334 -65.5 -35.001 -96.5s-40.334 -46.5 -77.001 -46.5c-14 0 -24.833 4.66699 -32.5 14s-11.5 20.666 -11.5 33.999v11l37 221v9c0 11.333 -2.33301 20.333 -7 27s-12 10.667 -22 12c-8 0 -20.333 -12.333 -37 -37c-17.333 -23.333 -30 -35 -38 -35
c-10 0 -23.833 15.167 -41.5 45.5s-26.5 51.166 -26.5 62.499c0 8 11.333 24 34 48s39.334 36 50.001 36c5.33301 0 14.5 -9.33301 27.5 -28s23.5 -28 31.5 -28c4.66699 0 14.834 9.33301 30.501 28s28.167 28 37.5 28c6.66699 0 16.834 -9.33301 30.501 -28
s24.834 -28 33.501 -28h196z" />
    <glyph glyph-name="uni0565" unicode="&#x565;" horiz-adv-x="356" 
d="M336 87l-10 -42l-10 -45h-232l-6 -15c-3.33301 -8 -5 -15 -5 -21c0 -17.333 5.66699 -32.666 17 -45.999c12 -12 26.333 -18 43 -18c21.333 0 37.333 4.33301 48 13c6 4.66699 11.333 9.16699 16 13.5s8.66699 8.83301 12 13.5
c-9.33301 -27.333 -21.833 -54.833 -37.5 -82.5s-39.167 -41.5 -70.5 -41.5c-19.333 0 -35.666 5.83301 -48.999 17.5s-20 26.5 -20 44.5l2 14l43 255l1 15c0 17.333 -7.33301 41.666 -22 72.999l-22 52c0 10.667 9.83301 30.667 29.5 60s35.5 44 47.5 44
c7.33301 0 14.166 -5.5 20.499 -16.5s9.5 -29.5 9.5 -55.5c0 -8.66699 -2.33301 -24.667 -7 -48l-19 -98l-17 -86h238z" />
    <glyph glyph-name="uni0566" unicode="&#x566;" horiz-adv-x="354" 
d="M372 -300l-200.002 0.00195312c-16 0 -24 6.33301 -24 19l35 122c9.33301 38.667 14 66 14 82c0 22 -2.33301 37.5 -7 46.5s-11.667 13.5 -21 13.5c-6.66699 0 -18.667 -7.33301 -36 -22l-22 -16l-9 -6c-9.33301 0 -23 10 -41 30c-18 18 -27 33.667 -27 47
c0 12.667 10.5 35.667 31.5 69s35.5 50 43.5 50c6.66699 0 17 -17.333 31 -52s24.333 -52 31 -52s17.334 16.333 32.001 49s26 49.667 34 51c8.66699 0 20.334 -13.333 35.001 -40s22 -50.334 22 -71.001c0 -13.333 -11.333 -37.666 -34 -72.999l-48 -80
c-9.33301 -16.667 -14 -35.334 -14 -56.001c0 -6.66699 2 -12.334 6 -17.001s10 -7 18 -7h150c3.33301 -6.66699 5 -13.334 5 -20.001s-1.66699 -14.667 -5 -24l-5 -24c0 -7.33301 1.66699 -13.666 5 -18.999z" />
    <glyph glyph-name="uni0567" unicode="&#x567;" horiz-adv-x="360" 
d="M340 87l-9.99609 -49c-4 -17.333 -6 -30 -6 -38h-230c-6 -0 -10 -4.66699 -12 -14c-4 -8 -6 -19 -6 -33c0 -20.667 14 -35.667 42 -45l70 -15c13.333 -3.33301 23.666 -9 30.999 -17c8.66699 -6.66699 13 -17 13 -31c0 -18 -3 -32.667 -9 -44
c-2.66699 -6.66699 -5.33398 -11.667 -8.00098 -15l-10 -13l-6 15c-2.66699 6 -14.334 11.333 -35.001 16l-75 15c-37.333 11.333 -56 27.333 -56 48l1 6l43 275l1 13c0 12.667 -7.33301 33.667 -22 63c-14.667 26.667 -22 46.667 -22 60c0 18 11.667 39.667 35 65
s39.666 38 48.999 38c4 0 8.83301 -5.83301 14.5 -17.5s8.5 -27.167 8.5 -46.5c0 -26.667 -7.33301 -68.167 -22 -124.5s-22 -93.5 -22 -111.5h243z" />
    <glyph glyph-name="uni0568" unicode="&#x568;" horiz-adv-x="332" 
d="M343 -213l-5.99902 -46.001c-2 -8.66699 -4.16699 -16.167 -6.5 -22.5s-6.16602 -12.5 -11.499 -18.5h-244c-16.667 0 -28.834 3.16699 -36.501 9.5s-11.5 17.5 -11.5 33.5c0 6.66699 2 16.5 6 29.5s10.667 30.5 20 52.5c17.333 42.667 26 72.667 26 90
c0 25.333 -5.33301 53 -16 83c-10.667 26 -16 45.333 -16 58c0 10 9 27 27 51s31.667 36 41 36c5.33301 0 13.833 -8 25.5 -24s21.5 -24 29.5 -24c7.33301 0 18.666 8.5 33.999 25.5s25.333 25.833 30 26.5c9.33301 0 22.333 -12.333 39 -37s25 -42.667 25 -54
c0 -14.667 -9.83301 -36.5 -29.5 -65.5s-35.167 -43.5 -46.5 -43.5c-7.33301 0 -17 14.833 -29 44.5s-22 44.5 -30 44.5c-9.33301 0 -24 -26.5 -44 -79.5s-32 -89.833 -36 -110.5l-7 -35c0 -7.33301 2.66699 -13.666 8 -18.999c6.66699 -3.33301 13.667 -5 21 -5h238z" />
    <glyph glyph-name="uni0569" unicode="&#x569;" horiz-adv-x="415" 
d="M395 87l-18.0029 -73c-2 -9.33301 -18.667 -14 -50 -14c-34.667 -0 -60.667 -8.66699 -78 -26s-28.666 -26 -33.999 -26c-7.33301 0 -17.666 11.667 -30.999 35s-20 43.333 -20 60l80 105c23.333 31.333 35 59 35 83c0 12.667 -5.66699 24 -17 34
c-12.667 9.33301 -28.334 14 -47.001 14c-24.667 0 -44.167 -18.167 -58.5 -54.5s-27.166 -82.5 -38.499 -138.5l-31 -149l-7 -43c-4 -23.333 -6 -37.333 -6 -42c0 -17.333 4 -31 12 -41s18.667 -15 32 -15c12 0 23.5 4 34.5 12s20.833 17.333 29.5 28
c-6 -29.333 -15.5 -59.833 -28.5 -91.5s-36.833 -47.5 -71.5 -47.5c-18 0 -32 5.33301 -42 16s-15 25 -15 43v8l4 27l19 91l30 135l19 100c4 24 6 42.667 6 56c0 30.667 -6 58 -18 82l-38 64c0 7.33301 10.833 19.833 32.5 37.5s35.834 26.5 42.501 26.5
c3.33301 0 8.33301 -2.66699 15 -8l18 -16c4 2.66699 8 5.5 12 8.5s9.33301 6.16699 16 9.5c10.667 6.66699 26.667 10 48 10c28 0 50.333 -6.33301 67 -19c16.667 -14.667 25 -35 25 -61c0 -26.667 -5.33301 -56.667 -16 -90l-37 -90c0 -15.333 8.33301 -26 25 -32
c8 -2.66699 19.667 -4.66699 35 -6s37 -2 65 -2z" />
    <glyph glyph-name="uni056A" unicode="&#x56a;" horiz-adv-x="467" 
d="M443 0h-172l-21 -49c-20.667 -38.667 -43.334 -71.667 -68.001 -99s-53.667 -41 -87 -41c-24.667 0 -42 7.33301 -52 22c-10.667 13.333 -16 31.333 -16 54c0 40 10.5 83.333 31.5 130s48.167 70 81.5 70h124l7 28c2.66699 8.66699 4 19 4 31
c0 28 -7.33301 54.667 -22 80c-14.667 27.333 -22 47.666 -22 60.999c0 14 9.16699 34 27.5 60s31.833 39 40.5 39c6.66699 0 13.167 -8.83301 19.5 -26.5s9.5 -36.5 9.5 -56.5c0 -19.333 -1 -39.5 -3 -60.5s-4.66699 -40.5 -8 -58.5
c-7.33301 -39.333 -14.666 -71.666 -21.999 -96.999h148c2.66699 -8 4 -16 4 -24l-3 -25l-4 -22zM231 0l-120.002 -0.000976562c-14 0 -24.667 -4.66699 -32 -14c-8 -8 -12 -18.333 -12 -31c0 -15.333 4.83301 -27.166 14.5 -35.499s23.834 -12.5 42.501 -12.5
c29.333 0 51.833 10 67.5 30s28.834 41 39.501 63z" />
    <glyph glyph-name="uni056B" unicode="&#x56b;" horiz-adv-x="308" 
d="M274 63c0 -17.333 -10.166 -39.6689 -30.499 -67.002s-38.166 -41 -53.499 -41c-9.33301 0 -18.333 14.667 -27 44c-10 29.333 -17.667 44 -23 44c-7.33301 0 -19.5 -22.667 -36.5 -68s-25.5 -85.666 -25.5 -120.999c0 -16 3.66699 -28.667 11 -38
c8.66699 -8.66699 18.667 -13 30 -13c12.667 0 24.667 4.66699 36 14l11 11c8 8 13.667 14.333 17 19c-2.66699 -14 -6.66699 -29.667 -12 -47s-11 -33.666 -17 -48.999c-13.333 -32 -39.666 -48 -78.999 -48c-14 0 -25.5 5.83301 -34.5 17.5s-13.5 29.834 -13.5 54.501
c0 22 7.33301 57.333 22 106l44 157c14.667 54.667 22 95 22 121c0 23.333 -4.33301 47.333 -13 72l-29 68c0 7.33301 11 26.666 33 57.999c23.333 30 38.666 45 45.999 45c9.33301 0 16.166 -7 20.499 -21s6.5 -30.667 6.5 -50c0 -18 -4 -45.667 -12 -83l-24 -117
c0 -13.333 4 -20 12 -20c6 0 16.333 6.33301 31 19s25.667 19.667 33 21c7.33301 0 18.666 -10 33.999 -30c14 -20 21 -39.333 21 -58z" />
    <glyph glyph-name="uni056C" unicode="&#x56c;" horiz-adv-x="209" 
d="M232 -213l-9.99707 -36.999c-4.66699 -15.333 -7 -29 -7 -41l1 -9h-158c-10.667 0 -18.334 3.33301 -23.001 10c-5.33301 5.33301 -8 14 -8 26s9 44.333 27 97s27 88.334 27 107.001c0 15.333 -5.66699 38.666 -17 69.999s-17 48 -17 50
c0 7.33301 11.167 23.666 33.5 48.999s38.5 38 48.5 38c5.33301 0 10 -5.66699 14 -17c1.33301 -5.33301 2.66602 -12.5 3.99902 -21.5s2 -18.5 2 -28.5c0 -27.333 -4 -55 -12 -83l-34 -104c-14 -41.333 -21 -67 -21 -77c0 -9.33301 3.16699 -16.5 9.5 -21.5
s15.166 -7.5 26.499 -7.5h114z" />
    <glyph glyph-name="uni056D" unicode="&#x56d;" horiz-adv-x="415" 
d="M381 37c0 -13.333 -9.66406 -31.998 -28.9971 -55.998c-20.667 -24 -36 -36 -46 -36c-7.33301 0 -17 8 -29 24s-21 24 -27 24s-16 -8 -30 -24s-24 -24 -30 -24c-7.33301 0 -17.5 9 -30.5 27s-22.833 27.667 -29.5 29c-8.66699 0 -20 -15.167 -34 -45.5
s-21 -60.5 -21 -90.5c0 -44.667 13.333 -67 40 -67c13.333 0 25.666 5 36.999 15l30 32c-8 -32.667 -19.333 -66 -34 -100s-39 -51 -73 -51c-14 0 -25.5 5.83301 -34.5 17.5s-13.5 29.834 -13.5 54.501c0 21.333 6 56.666 18 105.999l38 151c13.333 53.333 20 95 20 125
c0 33.333 -7 63.666 -21 90.999c-14.667 25.333 -22 43 -22 53c0 12.667 10.5 32.5 31.5 59.5s38.5 40.5 52.5 40.5c5.33301 0 10.666 -6 15.999 -18c4 -13.333 6 -34 6 -62c0 -22.667 -6.33301 -62.334 -19 -119.001c-6.66699 -29.333 -11.667 -52.833 -15 -70.5
s-5 -30.167 -5 -37.5c0 -10.667 2.33301 -16 7 -16c6.66699 0 18 11.833 34 35.5s27.333 35.5 34 35.5s16 -12.5 28 -37.5s21.333 -37.5 28 -37.5c9.33301 0 21.666 12.667 36.999 38c16.667 24.667 27 37 31 37c8 0 19.167 -13.833 33.5 -41.5s21.5 -48.167 21.5 -61.5z
" />
    <glyph glyph-name="uni056E" unicode="&#x56e;" horiz-adv-x="459" 
d="M439 87l-11 -38.001c-2.66699 -14.667 -4.33398 -24 -5.00098 -28v-21h-144c-10 0 -25 -19 -45 -57s-40.167 -68.667 -60.5 -92s-49.166 -35 -86.499 -35c-20 0 -35 6.83301 -45 20.5s-15 31.834 -15 54.501c0 35.333 10.833 76.833 32.5 124.5s49.5 71.5 83.5 71.5h112
l14 35c4 12 6 24.667 6 38c0 26.667 -24.667 48.5 -74 65.5s-74 40.167 -74 69.5c0 22.667 5.33301 42.334 16 59.001c6 9.33301 11 16.666 15 21.999c1.33301 2 7 8.33301 17 19c0 -39.333 24 -68 72 -86s72 -44 72 -78c0 -24.667 -3 -49.667 -9 -75l-19 -69h148z
M228 -0.000976562h-125c-10.667 0 -19 -4 -25 -12c-7.33301 -8 -11 -17.667 -11 -29c0 -14.667 5 -27 15 -37s23.667 -15 41 -15c32.667 0 56 10.333 70 31c13.333 17.333 25 38 35 62z" />
    <glyph glyph-name="uni056F" unicode="&#x56f;" horiz-adv-x="279" 
d="M281 -160c-3.33301 -12 -6.33398 -24.001 -9.00098 -36.001c-4.66699 -16.667 -12.667 -36.667 -24 -60c-15.333 -32 -40.333 -48 -75 -48c-14.667 0 -25.667 3.66699 -33 11c-9.33301 6 -14 15.667 -14 29l3 16l52 191l1 10c0 15.333 -24.667 23 -74 23
s-74 15.667 -74 47l13 52c10 31.333 15 61 15 89c0 10 -5 29 -15 57c-8.66699 28 -13 48.667 -13 62c0 10 12.5 30.5 37.5 61.5s44.167 46.5 57.5 46.5c5.33301 0 9.83301 -3.66699 13.5 -11s5.83398 -15.666 6.50098 -24.999c0 -24 -3 -45.667 -9 -65l-35 -95
c-15.333 -41.333 -23 -69.333 -23 -84c0 -13.333 6.66699 -23.666 20 -30.999c13.333 -8.66699 29 -13 47 -13c21.333 0 38.333 3.33301 51 10l33 18v-28c0 -26.667 -8 -65.834 -24 -117.501s-24 -85.5 -24 -101.5c0 -32 13.333 -48 40 -48c10 0 19.667 4.33301 29 13z" />
    <glyph glyph-name="uni0570" unicode="&#x570;" horiz-adv-x="438" 
d="M404 57c0 -33.333 -4.99707 -61.666 -14.9971 -84.999c-6 -12.667 -11.667 -24 -17 -34s-10.333 -18.333 -15 -25l7 47l1 8c0 5.33301 -1.83301 12 -5.5 20s-10.167 12 -19.5 12h-306c0 14 15 54 45 120c13.333 30.667 26.666 59.667 39.999 87l32 63
c19.333 34 40.833 62.667 64.5 86s45.167 35 64.5 35c15.333 0 28.5 -5.66699 39.5 -17s16.5 -28.333 16.5 -51c0 -32 -6.5 -56.667 -19.5 -74s-27.5 -32.333 -43.5 -45l7 22l4 22c0 10.667 -3.16699 20 -9.5 28s-17.5 12 -33.5 12c-20.667 0 -49.834 -29.5 -87.501 -88.5
s-56.5 -96.5 -56.5 -112.5h283c9.33301 0 15.666 -2.33301 18.999 -7s5 -12.334 5 -23.001z" />
    <glyph glyph-name="uni0571" unicode="&#x571;" horiz-adv-x="292" 
d="M249 228c0 -10.667 -9.00098 -26.998 -27.001 -48.998l-54 -67c3.33301 -3.33301 6.33301 -6 9 -8l30 -24c25.333 -19.333 38 -47 38 -83c0 -61.333 -17 -126.5 -51 -195.5s-72.333 -103.5 -115 -103.5c-16 0 -28.667 5.66699 -38 17s-14 25.666 -14 42.999
c0 27.333 6.66699 49 20 65c7.33301 9.33301 12 15 14 17c8 9.33301 16.667 17.666 26 24.999c0 -14 3 -30.167 9 -48.5s19 -27.5 39 -27.5c16.667 0 30.5 10.5 41.5 31.5s16.5 50.5 16.5 88.5c0 30.667 -11 57 -33 79l-73 69c0 5.33301 13.667 23 41 53s41 49.333 41 58
c0 10.667 -13.667 24.5 -41 41.5s-41 30.833 -41 41.5c0 13.333 7.33301 28.333 22 45l21 23.5c6.66699 7.66699 14.334 15.5 23.001 23.5c0 -18 16 -38.167 48 -60.5s48 -40.5 48 -54.5z" />
    <glyph glyph-name="uni0572" unicode="&#x572;" horiz-adv-x="351" 
d="M362 -213l1.99902 -15.999c0 -8.66699 -2.66699 -21.667 -8 -39l-10 -32h-186c-10 0 -17.667 2.16699 -23 6.5s-8.66602 10.5 -9.99902 18.5c16 40 30.333 80.667 43 122s19 79 19 113c0 21.333 -1.66699 38.666 -5 51.999s-8.33301 20 -15 20
c-5.33301 0 -16 -14.667 -32 -44s-29.333 -44 -40 -44s-23.834 9 -39.501 27s-23.5 38.333 -23.5 61c0 16 10.167 38.667 30.5 68s36.5 44 48.5 44c8 0 19.167 -8.16699 33.5 -24.5s24.5 -24.5 30.5 -24.5c5.33301 0 14.333 7.83301 27 23.5s23.334 24.167 32.001 25.5
c8.66699 0 20.5 -9.16699 35.5 -27.5s22.5 -36.833 22.5 -55.5l-3 -18l-109 -236l-2 -9c0 -4 2.66699 -7 8 -9l21 -2h153z" />
    <glyph glyph-name="uni0573" unicode="&#x573;" horiz-adv-x="395" 
d="M341 63c13.333 -18.667 20 -36.665 20 -53.998c0 -18 -6.5 -32.5 -19.5 -43.5s-30.5 -16.5 -52.5 -16.5h-255c0 16 5.33301 40 16 72l38 97l21 49l-18 14c-4 2.66699 -10 5.66699 -18 9l-10 1c-10.667 0 -17.667 -1.33301 -21 -4l-8 -8c0 11.333 6.33301 25.5 19 42.5
s25.667 25.5 39 25.5c5.33301 0 9.66602 -1.33301 12.999 -4l23 -14l25 37c10 21.333 18.667 38.833 26 52.5s15.333 26.834 24 39.501c14 22 33.333 33 58 33c19.333 0 33.5 -6.5 42.5 -19.5s13.5 -30.5 13.5 -52.5c0 -22.667 -3.66699 -41.334 -11 -56.001l-21 -36
c0 9.33301 -1 18.666 -3 27.999s-3.66699 16.666 -5 21.999c-5.33301 17.333 -17.333 26 -36 26c-16.667 0 -33 -11.5 -49 -34.5s-24 -42.833 -24 -59.5c6.66699 -6 12.667 -11 18 -15c14 -11.333 32 -25 54 -41c46.667 -32.667 80.334 -62.667 101.001 -90zM273 36.002
c8 0 12 2 12 6c0 9.33301 -16 25 -48 47l-98 62l-30 -66c-10.667 -24.667 -16 -41 -16 -49h180z" />
    <glyph glyph-name="uni0574" unicode="&#x574;" horiz-adv-x="348" 
d="M372 299h-95.9971c-28.667 0 -43 -23.667 -43 -71c0 -27.333 7 -65.666 21 -114.999c2.66699 -8 6.66699 -23 12 -45s8.33301 -36.667 9 -44c0 -10 -9.33301 -25.833 -28 -47.5s-34 -32.5 -46 -32.5c-4.66699 0 -12.667 6 -24 18
c-4.66699 5.33301 -9.16699 9.5 -13.5 12.5s-7.83301 4.83301 -10.5 5.5c-6.66699 0 -15.834 -5.16699 -27.501 -15.5s-21.167 -15.5 -28.5 -15.5c-11.333 0 -24.666 10.167 -39.999 30.5s-23 39.166 -23 56.499c0 12 9.66699 32.333 29 61s33.333 43 42 43
c7.33301 0 17.166 -15.333 29.499 -46s23.166 -46 32.499 -46s18.666 13.5 27.999 40.5s14 62.5 14 106.5v148c0 13.333 4.83301 24 14.5 32s20.5 12 32.5 12h116l-3 -24l-2 -30l1 -20z" />
    <glyph glyph-name="uni0575" unicode="&#x575;" horiz-adv-x="253" 
d="M206 6c0 -104 -11.668 -181.5 -35.001 -232.5s-57 -76.5 -101 -76.5c-14.667 0 -25.5 5.16699 -32.5 15.5s-10.5 22.5 -10.5 36.5c0 22.667 5 42.334 15 59.001s20.667 31.667 32 45c0.666992 -6.66699 1.83398 -14.334 3.50098 -23.001s4.66699 -20.5 9 -35.5
s14.833 -22.5 31.5 -22.5c12.667 0 25.667 11.833 39 35.5s20 55.834 20 96.501c0 29.333 -7.33301 56 -22 80l-48 64c0 12 8.66699 30 26 54c16 25.333 31.333 38 46 38c7.33301 0 14 -12 20 -36c4.66699 -22.667 7 -55.334 7 -98.001z" />
    <glyph glyph-name="uni0576" unicode="&#x576;" horiz-adv-x="343" 
d="M310 32c0 -11.333 -9.83398 -28.168 -29.501 -50.501s-33.834 -33.5 -42.501 -33.5c-5.33301 0 -13.666 8.66699 -24.999 26s-20.333 26 -27 26c-5.33301 0 -15.833 -8 -31.5 -24s-27.834 -24 -36.501 -24c-8 0 -20.167 7 -36.5 21s-24.5 28.667 -24.5 44l3 15l94 207
l3 12c0 12.667 -21.667 22.834 -65 30.501s-65 20.167 -65 37.5c0 28 4.66699 47.667 14 59l22 25c0 -10.667 4.33301 -19.167 13 -25.5s31.834 -13 69.501 -20s56.5 -19.833 56.5 -38.5l-31 -108c-8.66699 -34.667 -13 -65 -13 -91c0 -15.333 2.83301 -29.833 8.5 -43.5
s12.167 -20.5 19.5 -20.5c5.33301 0 16 15.167 32 45.5s28 45.5 36 45.5c8.66699 0 20.334 -14.333 35.001 -43c14 -30 21 -54 21 -72z" />
    <glyph glyph-name="uni0577" unicode="&#x577;" horiz-adv-x="318" 
d="M325 -213l-8 -41.001c-2.66699 -13.333 -4 -28.666 -4 -45.999h-255c-9.33301 0 -16.833 3 -22.5 9s-8.5 14 -8.5 24c0 14 12.333 38.667 37 74l74 105c26 41.333 39 73.333 39 96c0 16 -4.33301 28.667 -13 38c-10.667 9.33301 -25 14 -43 14
c-19.333 0 -33.166 -4.83301 -41.499 -14.5s-14.833 -19.5 -19.5 -29.5c3.33301 15.333 7.66602 30.333 12.999 45s11.666 29 18.999 43c14 29.333 41 44 81 44c22.667 0 40.334 -6.66699 53.001 -20s19 -33.333 19 -60c0 -32 -15.667 -71.333 -47 -118l-96 -141
c0 -14.667 12 -22 36 -22h187z" />
    <glyph glyph-name="uni0578" unicode="&#x578;" horiz-adv-x="330" 
d="M297 56c0 -8 -11.832 -28.833 -35.499 -62.5s-41.167 -50.5 -52.5 -50.5c-8 0 -16 14 -24 42s-16 42 -24 42c-6.66699 0 -18 -13.333 -34 -40c-14.667 -26.667 -26 -40 -34 -40c-9.33301 0 -21.5 14.333 -36.5 43s-22.5 52 -22.5 70c0 11.333 11.5 28 34.5 50
s40.833 33 53.5 33c8 0 17 -8 27 -24c11.333 -16 20.666 -24 27.999 -24c2.66699 2 5 3.66699 7 5c6.66699 5.33301 13 11 19 17c14.667 14.667 26 22 34 22s20 -10.667 36 -32s24 -38.333 24 -51z" />
    <glyph glyph-name="uni0579" unicode="&#x579;" horiz-adv-x="318" 
d="M333 -213l-4.00098 -31.002c-2.66699 -14 -8 -32.667 -16 -56h-223c-16 0 -31 2.66699 -45 8c-12 6 -18 15.333 -18 28s12.667 35.334 38 68.001l79 94c26 32 39 54 39 66c0 14.667 -22.667 32 -68 52s-68 37 -68 51c0 16 7.33301 31.333 22 46
s29.334 27.334 44.001 38.001v-16c1.33301 -8.66699 6 -16.667 14 -24l57 -26.5c18 -8.33301 31.333 -15.166 40 -20.499c22.667 -12.667 34 -26.334 34 -41.001c0 -12.667 -11 -33.667 -33 -63l-68 -89c-22 -30 -33.667 -50.667 -35 -62c0 -14.667 9.33301 -22 28 -22h183z
" />
    <glyph glyph-name="uni057A" unicode="&#x57a;" horiz-adv-x="444" 
d="M420 -176c-4 -14.667 -9.33301 -29.3369 -16 -44.0039l-21 -44c-16 -29.333 -41 -44 -75 -44c-14 0 -25.333 4.83301 -34 14.5s-13 23.834 -13 42.501c0 12.667 8.66699 43 26 91c8 22.667 14.167 41.334 18.5 56.001s6.5 25.334 6.5 32.001
c0 14.667 -2.83301 29.667 -8.5 45s-14.5 23 -26.5 23c-6 0 -17 -8.66699 -33 -26s-29 -26 -39 -26c-6.66699 0 -15 8 -25 24s-17.667 24 -23 24c-3.33301 0 -14 -8 -32 -24s-30 -24 -36 -24c-8 0 -19.167 9.5 -33.5 28.5s-21.5 36.167 -21.5 51.5s8.66699 38.5 26 69.5
s32.333 46.5 45 46.5c6 0 15.5 -13.333 28.5 -40s23.5 -40 31.5 -40c3.33301 3.33301 6 6.33301 8 9c6 8 12.333 18.333 19 31c14 26 26.333 39.333 37 40c9.33301 0 19.166 -13.333 29.499 -40s19.166 -40 26.499 -40c6.66699 0 17.334 13.167 32.001 39.5
s25 39.833 31 40.5c10.667 0 23.834 -11.833 39.501 -35.5s23.5 -45.167 23.5 -64.5c0 -15.333 -15.833 -44.666 -47.5 -87.999s-47.5 -82 -47.5 -116c0 -12.667 3.83301 -23.667 11.5 -33s17.167 -14 28.5 -14c12.667 0 24.667 3.66699 36 11l11 8
c6 4.66699 11.667 10 17 16z" />
    <glyph glyph-name="uni057B" unicode="&#x57b;" horiz-adv-x="332" 
d="M352 -213l-7 -50.001c-2 -17.333 -5.33301 -29.666 -10 -36.999h-273c-10 0 -18 3 -24 9c-7.33301 5.33301 -11 13.333 -11 24c0 12 9.66699 33 29 63l57 95c20 32 30 54 30 66c0 16 -16 35.667 -48 59c-32 21.333 -48 40 -48 56c0 30 15.667 76 47 138
s63.666 93 96.999 93c10.667 0 21.834 -3.5 33.501 -10.5s23.167 -17.5 34.5 -31.5c23.333 -28.667 35 -57.334 35 -86.001c0 -26 -8.66699 -54 -26 -84l-91 -151c-42.667 -68.667 -64 -109.667 -64 -123c0 -9.33301 3 -16.666 9 -21.999s15 -8 27 -8h203zM215 115.999
c0 28.667 -7.33203 51.333 -21.999 68c-8 8.66699 -15.333 14.834 -22 18.501s-14.667 5.5 -24 5.5c-8.66699 0 -16.167 -3.66699 -22.5 -11s-9.5 -16 -9.5 -26c0 -19.333 8.83301 -38.833 26.5 -58.5s28.5 -33.5 32.5 -41.5l7 -23l2 -19l-1 -20l-4 -11l25 55
c3.33301 10 6.16602 19.667 8.49902 29s3.5 20.666 3.5 33.999z" />
    <glyph glyph-name="uni057C" unicode="&#x57c;" horiz-adv-x="524" 
d="M88 -40c-6.66699 0 -14.335 2.3291 -23.002 6.99609c-12 6.66699 -21.333 15.334 -28 26.001c-14 22 -21 40 -21 54c0 10.667 10.833 32 32.5 64s37.167 45.667 46.5 41c6 -3.33301 14.167 -14.333 24.5 -33s18.166 -28 23.499 -28c2.66699 0 5.33398 1.33301 8.00098 4
c18.667 18.667 33 32 43 40s17 12 21 12c8 0 18 -12.667 30 -38c12.667 -24 24 -36.667 34 -38c7.33301 0 16 3 26 9c10.667 4.66699 20.334 7 29.001 7h168l-8 -40c-2.66699 -13.333 -4 -29 -4 -47h-176c-21.333 0 -41.5 -6.66699 -60.5 -20s-33.167 -20 -42.5 -20
c-3.33301 0 -7.33301 2.66699 -12 8l-21 25c-2 2.66699 -4.66699 9.33398 -8 20.001s-9.66602 18.334 -18.999 23.001c-6 3.33301 -15 -3.66699 -27 -21s-24 -35.666 -36 -54.999z" />
    <glyph glyph-name="uni057D" unicode="&#x57d;" horiz-adv-x="321" 
d="M288 25c0 -10.667 -9.66992 -26.833 -29.0029 -48.5s-33.666 -32.5 -42.999 -32.5c-4 0 -12.167 7.83301 -24.5 23.5s-23.833 24.167 -34.5 25.5c-7.33301 0 -18.666 -8.16699 -33.999 -24.5s-26.666 -24.5 -33.999 -24.5c-8.66699 0 -20 11.333 -34 34s-21 41 -21 55
c0 10.667 11.167 32.5 33.5 65.5s37.5 49.5 45.5 49.5c9.33301 0 19 -13.833 29 -41.5s17.667 -41.5 23 -41.5c8.66699 0 19.5 13.167 32.5 39.5s23.167 39.5 30.5 39.5c9.33301 0 22 -14.333 38 -43c14.667 -28.667 22 -54 22 -76z" />
    <glyph glyph-name="uni057E" unicode="&#x57e;" horiz-adv-x="308" 
d="M326 -213l-8.99805 -47.0049c-1.33301 -5.33301 -3 -11.666 -5 -18.999s-5.33301 -14.333 -10 -21h-138c-8 0 -14 2.33301 -18 7c-4.66699 4 -7 10.333 -7 19l1 11l46 227l1 7c0 5.33301 -1.5 10.833 -4.5 16.5s-8.5 8.83398 -16.5 9.50098
c-6.66699 0 -18.334 -8 -35.001 -24s-30.667 -24 -42 -24c-10.667 0 -22.5 9.83301 -35.5 29.5s-19.5 37.834 -19.5 54.501c0 16 10.167 38.5 30.5 67.5s36.5 43.5 48.5 43.5c8 0 20 -16 36 -48s28.333 -48 37 -48c8 0 14.5 7 19.5 21s7.5 36.333 7.5 67
c0 29.333 -5.5 63 -16.5 101s-16.5 58.667 -16.5 62c0 12.667 9.16699 31.834 27.5 57.501s31.833 38.5 40.5 38.5c7.33301 0 13.666 -6 18.999 -18c4 -13.333 6 -27.333 6 -42v-8l-1 -8l-82 -497l-1 -11c0 -9.33301 3 -15.666 9 -18.999s14 -5 24 -5h104z" />
    <glyph glyph-name="uni057F" unicode="&#x57f;" horiz-adv-x="441" 
d="M408 40c0 -12 -9.99805 -30.334 -29.998 -55.001s-35.333 -37 -46 -37c-7.33301 0 -16.833 10.667 -28.5 32s-20.5 32 -26.5 32c-20.667 0 -37.667 -27 -51 -81l-26 -155c-8.66699 -52.667 -19 -79 -31 -79c-8.66699 0 -19.667 10 -33 30c-12.667 22 -19 41.333 -19 58
c0 11.333 12 31 36 59s36 57.333 36 88c0 12.667 -2.5 25.834 -7.5 39.501s-11.833 20.5 -20.5 20.5c-5.33301 0 -16.333 -8 -33 -24s-28.334 -24 -35.001 -24c-11.333 0 -24 11.167 -38 33.5s-21 40.5 -21 54.5c0 12 10 33.333 30 64s35 46.667 45 48
c6.66699 0 15.667 -14.667 27 -44c10 -29.333 18.333 -44 25 -44c7.33301 0 18.666 14 33.999 42c16.667 28 29.334 42 38.001 42c5.33301 0 13.666 -10 24.999 -30s20.333 -30 27 -30c7.33301 0 18.833 10.333 34.5 31s27.834 31.667 36.501 33
c9.33301 0 20.666 -13.667 33.999 -41c12 -28 18 -49 18 -63z" />
    <glyph glyph-name="uni0580" unicode="&#x580;" horiz-adv-x="326" 
d="M293 57c0 -13.333 -10.666 -34.6689 -31.999 -64.002c-19.333 -29.333 -35.333 -44 -48 -44c-9.33301 0 -19.333 12.667 -30 38s-19.334 38 -26.001 38c-15.333 0 -32.666 -16.333 -51.999 -49s-29 -73.667 -29 -123c0 -18 3.66699 -33.167 11 -45.5
s17.666 -18.5 30.999 -18.5c14 0 25.333 3.5 34 10.5s17 14.833 25 23.5c-4.66699 -27.333 -13.167 -56.333 -25.5 -87s-34.833 -46 -67.5 -46c-16 0 -29.833 4.83301 -41.5 14.5s-17.5 22.5 -17.5 38.5l2 11l35 190v12c0 14.667 -4.66699 32.667 -14 54s-14 34.333 -14 39
c0 14.667 11.667 34.834 35 60.501s41 38.5 53 38.5c7.33301 0 16.333 -8.66699 27 -26c12 -17.333 20 -26 24 -26c6 0 17.333 8 34 24s28 24 34 24c8 0 18.667 -11.167 32 -33.5s20 -40.166 20 -53.499z" />
    <glyph glyph-name="uni0581" unicode="&#x581;" horiz-adv-x="330" 
d="M297 32c0 -11.333 -5 -34.668 -15 -70.001c-5.33301 -18.667 -11 -37 -17 -55s-14.667 -42.333 -26 -73c-18.667 -50.667 -38.834 -87 -60.501 -109s-44.167 -33 -67.5 -33c-16.667 0 -31.5 7 -44.5 21s-19.5 32 -19.5 54c0 12 2 24 6 36l14 30
c2.66699 -14.667 8.66699 -29 18 -43c8 -14 23.333 -21 46 -21c28 0 49.333 11.333 64 34s22 52.334 22 89.001c0 22.667 -6.83301 45.667 -20.5 69s-25.5 35 -35.5 35c-4 0 -13.667 -8 -29 -24c-14 -16 -25.333 -24 -34 -24c-9.33301 0 -22.333 10 -39 30
s-25 36.667 -25 50c0 16 10 39.833 30 71.5s36.333 47.5 49 47.5c6 0 15 -13.167 27 -39.5s21.667 -39.5 29 -39.5c6.66699 0 15.834 13.167 27.501 39.5s22.5 39.5 32.5 39.5c11.333 0 25.5 -15.167 42.5 -45.5s25.5 -53.5 25.5 -69.5z" />
    <glyph glyph-name="uni0582" unicode="&#x582;" horiz-adv-x="400" 
d="M25 95c5.33301 0 14.666 8.66699 27.999 26s24 26 32 26s18 -12.667 30 -38c12.667 -24 24 -36.667 34 -38c7.33301 0 16 3 26 9c10.667 4.66699 20.334 7 29.001 7h168l-8 -40c-2.66699 -13.333 -4 -29 -4 -47h-176c-21.333 -0 -41.5 -6.66699 -60.5 -20
s-33.167 -20 -42.5 -20c-6.66699 0 -16.667 12.667 -30 38c-4 8 -9.5 14.833 -16.5 20.5s-11.667 12 -14 19s-3.5 16.5 -3.5 28.5c0 6 0.5 12.5 1.5 19.5s3.16699 10.167 6.5 9.5z" />
    <glyph glyph-name="uni0583" unicode="&#x583;" horiz-adv-x="374" 
d="M340 41c0 -10.667 -8.49707 -29.501 -25.4971 -56.501s-31.167 -40.5 -42.5 -40.5c-8 0 -16.833 11.5 -26.5 34.5s-18.167 34.5 -25.5 34.5c-5.33301 0 -13.333 -19 -24 -57s-16 -72.333 -16 -103c0 -15.333 2.83301 -28.5 8.5 -39.5s14.834 -16.5 27.501 -16.5
c11.333 0 22.666 5.66699 33.999 17l26 35c-8 -35.333 -19 -70.666 -33 -105.999s-36.333 -53 -67 -53c-11.333 0 -20.333 4.83301 -27 14.5s-10 22.167 -10 37.5l1 15l29 196l1 11v10l-3 23c-1.33301 5.33301 -4.66602 8 -9.99902 8
c-6.66699 0 -16.834 -10.5 -30.501 -31.5s-24.834 -32.167 -33.501 -33.5c-8 0 -19.833 12.667 -35.5 38s-23.5 43.666 -23.5 54.999c0 12.667 8.33301 34.334 25 65.001s30.667 46 42 46c8 0 18.167 -15.167 30.5 -45.5s22.5 -45.5 30.5 -45.5c6 0 11.5 6.16699 16.5 18.5
s7.5 28.5 7.5 48.5c0 27.333 -7.66699 58.333 -23 93s-23 58.334 -23 71.001c0 16 12.5 39.167 37.5 69.5s41.833 45.5 50.5 45.5c5.33301 0 10.666 -4 15.999 -12c4 -9.33301 6 -20 6 -32v-7l-2 -9l-40 -255v-4c0 -4.66699 0.833008 -9 2.5 -13s4.83398 -6 9.50098 -6
c7.33301 0 19.166 13.167 35.499 39.5s28.5 39.5 36.5 39.5c7.33301 0 17.166 -12.833 29.499 -38.5s18.5 -45.834 18.5 -60.501z" />
    <glyph glyph-name="uni0584" unicode="&#x584;" horiz-adv-x="339" 
d="M319 36l-29 -50c-10.667 -16 -19.667 -24.667 -27 -26c-6 0 -15.667 3 -29 9l-39 15l-24 -131l-2 -20c0 -15.333 4.33301 -26.333 13 -33c7.33301 -7.33301 17 -11 29 -11c15.333 0 28.333 5.33301 39 16c6.66699 6.66699 10.667 10.334 12 11.001
c5.33301 5.33301 11 12 17 20c-6 -26 -11.667 -46.333 -17 -61c-2.66699 -8 -8 -21 -16 -39c-14 -34 -37.667 -51 -71 -51c-14 0 -25.833 4.66699 -35.5 14s-14.5 23.333 -14.5 42v8l2 8l40 238l-78 36c-28.667 11.333 -51.667 17 -69 17l24 54c8 17.333 15.667 26 23 26
c13.333 0 30 -4 50 -12l58 -25v29c0 46.667 -8 82.667 -24 108s-24 45.333 -24 60c0 11.333 9 30.666 27 57.999s32.333 41 43 41c8 0 14.667 -10 20 -30c2 -11.333 3.66699 -23 5 -35s2 -26 2 -42c0 -45.333 -2 -84 -6 -116l-12 -84l60 -29c22 -10 39.667 -15 53 -15z" />
    <glyph glyph-name="uni0585" unicode="&#x585;" horiz-adv-x="300" 
d="M280 37c0 -15.333 -15.3311 -35.832 -45.998 -61.499s-56.334 -38.5 -77.001 -38.5c-18.667 0 -43.834 13.167 -75.501 39.5s-47.5 49.166 -47.5 68.499c0 16 16.333 37.833 49 65.5s60 41.5 82 41.5c18 0 41.667 -13.667 71 -41s44 -52 44 -74zM199.002 41.001
c0 15.333 -3 32.002 -9 50.002s-14.667 31.667 -26 41c-4 -2.66699 -8.5 -7.83398 -13.5 -15.501s-10.167 -16.834 -15.5 -27.501c-9.33301 -18.667 -14 -37.334 -14 -56.001c0 -14 2.83301 -27.333 8.5 -40s15.167 -24.667 28.5 -36c13.333 8 23.5 19.333 30.5 34
s10.5 31.334 10.5 50.001z" />
    <glyph glyph-name="uni0586" unicode="&#x586;" horiz-adv-x="562" 
d="M528 47c0 -14 -8.00293 -25.3359 -24.0029 -34.0029s-33.333 -13 -52 -13h-140l-16 -63c-4.66699 -21.333 -7 -44.333 -7 -69c0 -24 3.33301 -41.333 10 -52s18 -16 34 -16c17.333 0 31.333 5.33301 42 16c6 5.33301 11.667 11 17 17l13 15
c-6.66699 -37.333 -16.167 -72.666 -28.5 -105.999s-37.5 -50 -75.5 -50c-17.333 0 -30.666 10 -39.999 30s-14 43.333 -14 70c0 18.667 0.666992 32.834 2 42.501s4 25.334 8 47.001l10 55.5c2.66699 15.333 7.33398 36.333 14.001 63h-247l11 47
c3.33301 14.667 9 28 17 40h240l11 38c2.66699 12.667 4 24 4 34c0 9.33301 -22.833 23 -68.5 41s-68.5 32.333 -68.5 43c0 24 15.333 58 46 102s60.334 66 89.001 66c16.667 0 30.5 -9.83301 41.5 -29.5s16.5 -41.834 16.5 -66.501c0 -15.333 -0.333008 -25.666 -1 -30.999
c-3.33301 -12 -5.33301 -21 -6 -27l-13 -74l64 -33c20 -10.667 39.333 -22 58 -34c35.333 -22 53 -45 53 -69zM331.997 243.997l-0.000976562 4.99902c0 10.667 -5.33301 20.334 -16 29.001s-25 13 -43 13c-12.667 0 -25.167 -4.16699 -37.5 -12.5
s-18.5 -16.833 -18.5 -25.5c0 -8 14.333 -18.833 43 -32.5s50.334 -22.167 65.001 -25.5zM412.996 102.996c0 8.66699 -6.16699 17.167 -18.5 25.5s-27.833 15.833 -46.5 22.5l-6 -26l-12 -38h27l40 3c10.667 2 16 6.33301 16 13z" />
    <glyph glyph-name="uni0587" unicode="&#x587;" horiz-adv-x="525" 
d="M84 146l-6 -15c-3.33301 -8.66699 -5 -15.667 -5 -21c0 -19.333 5.66699 -34.666 17 -45.999c12 -12 26.333 -18 43 -18c10.667 0 16.334 0.333008 17.001 1s0.666992 1.66699 0 3c-0.666992 3.33301 0 10 2 20c0.666992 6.66699 2.66699 9.66699 6 9
c5.33301 0 14.666 8.66699 27.999 26s24 26 32 26c6.66699 0 16.667 -12.667 30 -38s24.666 -38 33.999 -38c5.33301 0 14 3 26 9c9.33301 4.66699 19 7 29 7h168l-8 -40c-2.66699 -13.333 -4 -29 -4 -47h-176c-21.333 0 -41.5 -6.66699 -60.5 -20s-33.167 -20 -42.5 -20
c-8.66699 0 -18.667 12.667 -30 38c-3.33301 7.33301 -8 13.666 -14 18.999c-16 -26 -39 -39 -69 -39c-19.333 0 -35.666 6 -48.999 18c-15.333 13.333 -22 28 -20 44l2 14l23 109l1 15c0.666992 13.333 -6.66602 38 -21.999 74l-22 52c0 10.667 9.83301 30.667 29.5 60
s35.5 44 47.5 44c7.33301 0 14.166 -5.5 20.499 -16.5s9.5 -29.5 9.5 -55.5c0 -2 -2.33301 -18 -7 -48l-9 -58l-9 -44z" />
    <glyph glyph-name="uni0589" unicode="&#x589;" horiz-adv-x="387" 
d="M264 164c-18.667 -16.667 -32.667 -25.001 -42 -25.001c-7.33301 0 -18.333 8.33301 -33 25c-12.667 16 -19 27.667 -19 35c0.666992 8.66699 10.667 21.334 30 38.001s34 25.667 44 27c6.66699 0 17.667 -8.33301 33 -25c10.667 -13.333 16.667 -25 18 -35
c-2 -10.667 -12.333 -24 -31 -40zM265 30.999c-2 -9.33301 -12.5 -22 -31.5 -38s-33.167 -24 -42.5 -24s-20.666 8 -33.999 24c-11.333 16.667 -17 28.667 -17 36c2 11.333 12.5 25 31.5 41s32.833 24 41.5 24c7.33301 0 18.666 -8 33.999 -24c12 -14 18 -25.667 18 -35v-4z
" />
    <glyph glyph-name="uni058A" unicode="&#x58a;" horiz-adv-x="423" 
d="M390 87c0 -12 -0.333008 -20.832 -1 -26.499s-3 -13.167 -7 -22.5c-4.66699 -14.667 -10 -27.334 -16 -38.001h-319c0 8 0.5 17.5 1.5 28.5s2.33301 22.667 4 35s7.83398 26.833 18.501 43.5l26 -13c9.33301 -4.66699 21.666 -7 36.999 -7h256z" />
    <glyph glyph-name="onedotenleader" unicode="&#x2024;" horiz-adv-x="360" 
d="M267 58c0 -11.333 -11 -25.833 -33 -43.5s-38.667 -27.167 -50 -28.5c-8 0 -19.5 9.16699 -34.5 27.5s-22.5 33.166 -22.5 44.499c0 10.667 10.833 24.834 32.5 42.501s38.167 26.5 49.5 26.5s23.833 -9 37.5 -27s20.5 -32 20.5 -42z" />
    <glyph glyph-name="ellipsis" unicode="&#x2026;" horiz-adv-x="648" 
d="M187 58c0 -11.333 -11 -25.833 -33 -43.5s-38.667 -27.167 -50 -28.5c-8 0 -19.5 9.16699 -34.5 27.5s-22.5 33.166 -22.5 44.499c0 10.667 10.833 24.834 32.5 42.501s38.167 26.5 49.5 26.5s23.833 -9 37.5 -27s20.5 -32 20.5 -42zM387 58
c0 -11.333 -11 -25.833 -33 -43.5s-38.667 -27.167 -50 -28.5c-8 0 -19.5 9.16699 -34.5 27.5s-22.5 33.166 -22.5 44.499c0 10.667 10.833 24.834 32.5 42.501s38.167 26.5 49.5 26.5s23.833 -9 37.5 -27s20.5 -32 20.5 -42zM579 58c0 -11.333 -11 -25.833 -33 -43.5
s-38.667 -27.167 -50 -28.5c-8 0 -19.5 9.16699 -34.5 27.5s-22.5 33.166 -22.5 44.499c0 10.667 10.833 24.834 32.5 42.501s38.167 26.5 49.5 26.5s23.833 -9 37.5 -27s20.5 -32 20.5 -42z" />
    <glyph glyph-name=".null" horiz-adv-x="0" 
 />
  </font>
</defs>
</svg>
